<?xml version="1.0" encoding="utf-8" standalone="no"?>
<!DOCTYPE svg PUBLIC "-//W3C//DTD SVG 1.1//EN"
  "http://www.w3.org/Graphics/SVG/1.1/DTD/svg11.dtd">
<!-- Created with matplotlib (http://matplotlib.org/) -->
<svg height="288pt" version="1.1" viewBox="0 0 432 288" width="432pt" xmlns="http://www.w3.org/2000/svg" xmlns:xlink="http://www.w3.org/1999/xlink">
 <defs>
  <style type="text/css">
*{stroke-linecap:butt;stroke-linejoin:round;}
  </style>
 </defs>
 <g id="figure_1">
  <g id="patch_1">
   <path d="
M0 288
L432 288
L432 0
L0 0
z
" style="fill:#ffffff;"/>
  </g>
  <g id="axes_1">
   <g id="patch_2">
    <path d="
M29.6219 125.6
L414.049 125.6
L414.049 15.3
L29.6219 15.3
z
" style="fill:#ffffff;"/>
   </g>
   <g id="line2d_1">
    <path clip-path="url(#p8b509fd436)" d="
M29.6219 122.974
L31.544 122.87
L33.4661 122.56
L35.5805 121.981
L37.6948 121.156
L39.8092 120.088
L41.9236 118.784
L44.2301 117.098
L46.7289 114.973
L49.2277 112.551
L51.9187 109.63
L54.8019 106.164
L57.8773 102.118
L61.3371 97.1868
L65.1814 91.3097
L69.7945 83.8315
L76.3298 72.7594
L86.7093 55.1637
L91.5147 47.491
L95.359 41.7513
L98.8188 36.9701
L101.894 33.0774
L104.777 29.7701
L107.468 27.0086
L109.967 24.7446
L112.466 22.7855
L114.773 21.2588
L116.887 20.1048
L119.001 19.1911
L121.116 18.5222
L123.23 18.1013
L125.152 17.9355
L127.074 17.977
L128.996 18.2255
L131.111 18.7369
L133.225 19.4953
L135.339 20.4969
L137.454 21.737
L139.76 23.355
L142.067 25.2405
L144.566 27.5728
L147.257 30.4036
L150.14 33.7797
L153.215 37.7388
L156.483 42.3063
L160.135 47.7883
L164.556 54.8482
L170.322 64.5224
L184.162 87.931
L188.583 94.8815
L192.427 100.516
L195.694 104.936
L198.77 108.738
L201.653 111.952
L204.344 114.62
L206.843 116.791
L209.149 118.522
L211.456 119.979
L213.57 121.068
L215.685 121.916
L217.799 122.517
L219.913 122.87
L221.836 122.974
L223.758 122.87
L225.68 122.56
L227.794 121.981
L229.909 121.156
L232.023 120.088
L234.137 118.784
L236.444 117.098
L238.943 114.973
L241.441 112.551
L244.132 109.63
L247.016 106.164
L250.091 102.118
L253.551 97.1868
L257.395 91.3097
L262.008 83.8315
L268.543 72.7594
L278.923 55.1637
L283.728 47.491
L287.573 41.7513
L291.032 36.9701
L294.108 33.0774
L296.991 29.7701
L299.682 27.0086
L302.181 24.7446
L304.68 22.7855
L306.986 21.2588
L309.101 20.1048
L311.215 19.1911
L313.329 18.5222
L315.444 18.1013
L317.366 17.9355
L319.288 17.977
L321.21 18.2255
L323.324 18.7369
L325.439 19.4953
L327.553 20.4969
L329.667 21.737
L331.974 23.355
L334.281 25.2405
L336.779 27.5728
L339.47 30.4036
L342.354 33.7797
L345.429 37.7388
L348.697 42.3063
L352.349 47.7883
L356.77 54.8482
L362.536 64.5224
L376.375 87.931
L380.796 94.8815
L384.641 100.516
L387.908 104.936
L390.984 108.738
L393.867 111.952
L396.558 114.62
L399.057 116.791
L401.363 118.522
L403.67 119.979
L405.784 121.068
L407.898 121.916
L410.013 122.517
L412.127 122.87
L413.857 122.973
L413.857 122.973" style="fill:none;stroke:#cc9900;stroke-linecap:square;stroke-width:2;"/>
   </g>
   <g id="line2d_2">
    <path clip-path="url(#p8b509fd436)" d="
M29.6219 70.45
L414.049 70.45" style="fill:none;stroke:#808080;stroke-linecap:square;"/>
   </g>
   <g id="matplotlib.axis_1">
    <g id="xtick_1">
     <g id="line2d_3">
      <defs>
       <path d="
M0 0
L0 -4" id="m93b0483c22" style="stroke:#000000;stroke-width:0.5;"/>
      </defs>
      <g>
       <use style="stroke:#000000;stroke-width:0.5;" x="29.621875" xlink:href="#m93b0483c22" y="135.6"/>
      </g>
     </g>
     <g id="text_1">
      <!-- 0 -->
      <defs>
       <path d="
M31.7812 66.4062
Q24.1719 66.4062 20.3281 58.9062
Q16.5 51.4219 16.5 36.375
Q16.5 21.3906 20.3281 13.8906
Q24.1719 6.39062 31.7812 6.39062
Q39.4531 6.39062 43.2812 13.8906
Q47.125 21.3906 47.125 36.375
Q47.125 51.4219 43.2812 58.9062
Q39.4531 66.4062 31.7812 66.4062
M31.7812 74.2188
Q44.0469 74.2188 50.5156 64.5156
Q56.9844 54.8281 56.9844 36.375
Q56.9844 17.9688 50.5156 8.26562
Q44.0469 -1.42188 31.7812 -1.42188
Q19.5312 -1.42188 13.0625 8.26562
Q6.59375 17.9688 6.59375 36.375
Q6.59375 54.8281 13.0625 64.5156
Q19.5312 74.2188 31.7812 74.2188" id="BitstreamVeraSans-Roman-30"/>
      </defs>
      <g transform="translate(27.10234375 147.1984375)scale(0.1 -0.1)">
       <use xlink:href="#BitstreamVeraSans-Roman-30"/>
      </g>
     </g>
    </g>
    <g id="xtick_2">
     <g id="line2d_4">
      <g>
       <use style="stroke:#000000;stroke-width:0.5;" x="125.728710938" xlink:href="#m93b0483c22" y="135.6"/>
      </g>
     </g>
     <g id="text_2">
      <!-- 5 -->
      <defs>
       <path d="
M10.7969 72.9062
L49.5156 72.9062
L49.5156 64.5938
L19.8281 64.5938
L19.8281 46.7344
Q21.9688 47.4688 24.1094 47.8281
Q26.2656 48.1875 28.4219 48.1875
Q40.625 48.1875 47.75 41.5
Q54.8906 34.8125 54.8906 23.3906
Q54.8906 11.625 47.5625 5.09375
Q40.2344 -1.42188 26.9062 -1.42188
Q22.3125 -1.42188 17.5469 -0.640625
Q12.7969 0.140625 7.71875 1.70312
L7.71875 11.625
Q12.1094 9.23438 16.7969 8.0625
Q21.4844 6.89062 26.7031 6.89062
Q35.1562 6.89062 40.0781 11.3281
Q45.0156 15.7656 45.0156 23.3906
Q45.0156 31 40.0781 35.4375
Q35.1562 39.8906 26.7031 39.8906
Q22.75 39.8906 18.8125 39.0156
Q14.8906 38.1406 10.7969 36.2812
z
" id="BitstreamVeraSans-Roman-35"/>
      </defs>
      <g transform="translate(123.370117188 147.1984375)scale(0.1 -0.1)">
       <use xlink:href="#BitstreamVeraSans-Roman-35"/>
      </g>
     </g>
    </g>
    <g id="xtick_3">
     <g id="line2d_5">
      <g>
       <use style="stroke:#000000;stroke-width:0.5;" x="221.835546875" xlink:href="#m93b0483c22" y="135.6"/>
      </g>
     </g>
     <g id="text_3">
      <!-- 10 -->
      <defs>
       <path d="
M12.4062 8.29688
L28.5156 8.29688
L28.5156 63.9219
L10.9844 60.4062
L10.9844 69.3906
L28.4219 72.9062
L38.2812 72.9062
L38.2812 8.29688
L54.3906 8.29688
L54.3906 0
L12.4062 0
z
" id="BitstreamVeraSans-Roman-31"/>
      </defs>
      <g transform="translate(216.354296875 147.1984375)scale(0.1 -0.1)">
       <use xlink:href="#BitstreamVeraSans-Roman-31"/>
       <use x="63.623046875" xlink:href="#BitstreamVeraSans-Roman-30"/>
      </g>
     </g>
    </g>
    <g id="xtick_4">
     <g id="line2d_6">
      <g>
       <use style="stroke:#000000;stroke-width:0.5;" x="317.942382813" xlink:href="#m93b0483c22" y="135.6"/>
      </g>
     </g>
     <g id="text_4">
      <!-- 15 -->
      <g transform="translate(312.565820313 147.1984375)scale(0.1 -0.1)">
       <use xlink:href="#BitstreamVeraSans-Roman-31"/>
       <use x="63.623046875" xlink:href="#BitstreamVeraSans-Roman-35"/>
      </g>
     </g>
    </g>
    <g id="xtick_5">
     <g id="line2d_7">
      <g>
       <use style="stroke:#000000;stroke-width:0.5;" x="414.04921875" xlink:href="#m93b0483c22" y="135.6"/>
      </g>
     </g>
     <g id="text_5">
      <!-- 20 -->
      <defs>
       <path d="
M19.1875 8.29688
L53.6094 8.29688
L53.6094 0
L7.32812 0
L7.32812 8.29688
Q12.9375 14.1094 22.625 23.8906
Q32.3281 33.6875 34.8125 36.5312
Q39.5469 41.8438 41.4219 45.5312
Q43.3125 49.2188 43.3125 52.7812
Q43.3125 58.5938 39.2344 62.25
Q35.1562 65.9219 28.6094 65.9219
Q23.9688 65.9219 18.8125 64.3125
Q13.6719 62.7031 7.8125 59.4219
L7.8125 69.3906
Q13.7656 71.7812 18.9375 73
Q24.125 74.2188 28.4219 74.2188
Q39.75 74.2188 46.4844 68.5469
Q53.2188 62.8906 53.2188 53.4219
Q53.2188 48.9219 51.5312 44.8906
Q49.8594 40.875 45.4062 35.4062
Q44.1875 33.9844 37.6406 27.2188
Q31.1094 20.4531 19.1875 8.29688" id="BitstreamVeraSans-Roman-32"/>
      </defs>
      <g transform="translate(408.38515625 147.1984375)scale(0.1 -0.1)">
       <use xlink:href="#BitstreamVeraSans-Roman-32"/>
       <use x="63.623046875" xlink:href="#BitstreamVeraSans-Roman-30"/>
      </g>
     </g>
    </g>
   </g>
   <g id="matplotlib.axis_2">
    <g id="ytick_1">
     <g id="line2d_8">
      <defs>
       <path d="
M0 0
L4 0" id="m728421d6d4" style="stroke:#000000;stroke-width:0.5;"/>
      </defs>
      <g>
       <use style="stroke:#000000;stroke-width:0.5;" x="19.621875" xlink:href="#m728421d6d4" y="122.973809524"/>
      </g>
     </g>
     <g id="text_6">
      <!-- −2 -->
      <defs>
       <path d="
M10.5938 35.5
L73.1875 35.5
L73.1875 27.2031
L10.5938 27.2031
z
" id="BitstreamVeraSans-Roman-2212"/>
      </defs>
      <g transform="translate(2.940625 125.733184524)scale(0.1 -0.1)">
       <use xlink:href="#BitstreamVeraSans-Roman-2212"/>
       <use x="83.7890625" xlink:href="#BitstreamVeraSans-Roman-32"/>
      </g>
     </g>
    </g>
    <g id="ytick_2">
     <g id="line2d_9">
      <g>
       <use style="stroke:#000000;stroke-width:0.5;" x="19.621875" xlink:href="#m728421d6d4" y="96.7119047619"/>
      </g>
     </g>
     <g id="text_7">
      <!-- −1 -->
      <g transform="translate(2.8625 99.4712797619)scale(0.1 -0.1)">
       <use xlink:href="#BitstreamVeraSans-Roman-2212"/>
       <use x="83.7890625" xlink:href="#BitstreamVeraSans-Roman-31"/>
      </g>
     </g>
    </g>
    <g id="ytick_3">
     <g id="line2d_10">
      <g>
       <use style="stroke:#000000;stroke-width:0.5;" x="19.621875" xlink:href="#m728421d6d4" y="70.45"/>
      </g>
     </g>
     <g id="text_8">
      <!-- 0 -->
      <g transform="translate(10.5828125 73.209375)scale(0.1 -0.1)">
       <use xlink:href="#BitstreamVeraSans-Roman-30"/>
      </g>
     </g>
    </g>
    <g id="ytick_4">
     <g id="line2d_11">
      <g>
       <use style="stroke:#000000;stroke-width:0.5;" x="19.621875" xlink:href="#m728421d6d4" y="44.1880952381"/>
      </g>
     </g>
     <g id="text_9">
      <!-- 1 -->
      <g transform="translate(11.28125 46.9474702381)scale(0.1 -0.1)">
       <use xlink:href="#BitstreamVeraSans-Roman-31"/>
      </g>
     </g>
    </g>
    <g id="ytick_5">
     <g id="line2d_12">
      <g>
       <use style="stroke:#000000;stroke-width:0.5;" x="19.621875" xlink:href="#m728421d6d4" y="17.9261904762"/>
      </g>
     </g>
     <g id="text_10">
      <!-- 2 -->
      <g transform="translate(10.99375 20.6855654762)scale(0.1 -0.1)">
       <use xlink:href="#BitstreamVeraSans-Roman-32"/>
      </g>
     </g>
    </g>
   </g>
   <g id="patch_3">
    <path d="
M29.6219 15.3
L414.049 15.3" style="fill:none;"/>
   </g>
   <g id="patch_4">
    <path d="
M414.049 125.6
L414.049 15.3" style="fill:none;"/>
   </g>
   <g id="patch_5">
    <path d="
M29.6219 135.6
L414.049 135.6" style="fill:none;stroke:#000000;"/>
   </g>
   <g id="patch_6">
    <path d="
M19.6219 122.974
L19.6219 17.9262" style="fill:none;stroke:#000000;"/>
   </g>
  </g>
  <g id="axes_2">
   <g id="patch_7">
    <path d="
M29.6219 264.2
L414.049 264.2
L414.049 153.9
L29.6219 153.9
z
" style="fill:#ffffff;"/>
   </g>
   <g id="line2d_13">
    <path clip-path="url(#p33d312b811)" d="
M29.6219 261.574
L31.544 261.47
L33.4661 261.16
L35.3883 260.643
L37.3104 259.924
L39.2326 259.003
L41.1547 257.885
L43.0768 256.575
L45.96 254.259
L48.8432 251.543
L51.7264 248.449
L54.6097 245.005
L57.4929 241.242
L61.3371 235.787
L65.1814 229.91
L69.9867 222.112
L76.7142 210.7
L86.3249 194.396
L91.1303 186.686
L94.9745 180.906
L98.8188 175.57
L101.702 171.91
L104.585 168.58
L107.468 165.609
L110.352 163.023
L113.235 160.846
L115.157 159.631
L117.079 158.612
L119.001 157.791
L120.923 157.173
L122.846 156.759
L124.768 156.552
L126.69 156.552
L128.612 156.759
L130.534 157.173
L132.456 157.791
L134.378 158.612
L136.3 159.631
L138.223 160.846
L140.145 162.251
L143.028 164.703
L145.911 167.548
L148.794 170.762
L151.678 174.315
L154.561 178.177
L158.405 183.746
L162.249 189.715
L167.055 197.592
L175.704 212.348
L182.432 223.704
L187.237 231.414
L191.081 237.194
L194.926 242.53
L197.809 246.19
L200.692 249.52
L203.575 252.491
L206.458 255.077
L209.342 257.254
L211.264 258.469
L213.186 259.488
L215.108 260.309
L217.03 260.927
L218.952 261.341
L220.874 261.548
L222.797 261.548
L224.719 261.341
L226.641 260.927
L228.563 260.309
L230.485 259.488
L232.407 258.469
L234.329 257.254
L236.252 255.849
L239.135 253.397
L242.018 250.552
L244.901 247.338
L247.784 243.785
L250.668 239.923
L254.512 234.354
L258.356 228.385
L263.161 220.508
L271.811 205.752
L278.539 194.396
L283.344 186.686
L287.188 180.906
L291.032 175.57
L293.916 171.91
L296.799 168.58
L299.682 165.609
L302.565 163.023
L305.448 160.846
L307.371 159.631
L309.293 158.612
L311.215 157.791
L313.137 157.173
L315.059 156.759
L316.981 156.552
L318.903 156.552
L320.826 156.759
L322.748 157.173
L324.67 157.791
L326.592 158.612
L328.514 159.631
L330.436 160.846
L332.358 162.251
L335.242 164.703
L338.125 167.548
L341.008 170.762
L343.891 174.315
L346.774 178.177
L350.619 183.746
L354.463 189.715
L359.268 197.592
L367.918 212.348
L374.645 223.704
L379.451 231.414
L383.295 237.194
L387.139 242.53
L390.023 246.19
L392.906 249.52
L395.789 252.491
L398.672 255.077
L401.555 257.254
L403.477 258.469
L405.4 259.488
L407.322 260.309
L409.244 260.927
L411.166 261.341
L413.088 261.548
L413.088 261.548" style="fill:none;stroke:#99cc33;stroke-linecap:square;stroke-width:2;"/>
   </g>
   <g id="line2d_14">
    <path clip-path="url(#p33d312b811)" d="
M29.6219 209.05
L414.049 209.05" style="fill:none;stroke:#808080;stroke-linecap:square;"/>
   </g>
   <g id="matplotlib.axis_3">
    <g id="xtick_6">
     <g id="line2d_15">
      <g>
       <use style="stroke:#000000;stroke-width:0.5;" x="29.621875" xlink:href="#m93b0483c22" y="274.2"/>
      </g>
     </g>
     <g id="text_11">
      <!-- 0 -->
      <g transform="translate(27.10234375 285.7984375)scale(0.1 -0.1)">
       <use xlink:href="#BitstreamVeraSans-Roman-30"/>
      </g>
     </g>
    </g>
    <g id="xtick_7">
     <g id="line2d_16">
      <g>
       <use style="stroke:#000000;stroke-width:0.5;" x="77.6752929688" xlink:href="#m93b0483c22" y="274.2"/>
      </g>
     </g>
     <g id="text_12">
      <!-- 50 -->
      <g transform="translate(72.0307617188 285.7984375)scale(0.1 -0.1)">
       <use xlink:href="#BitstreamVeraSans-Roman-35"/>
       <use x="63.623046875" xlink:href="#BitstreamVeraSans-Roman-30"/>
      </g>
     </g>
    </g>
    <g id="xtick_8">
     <g id="line2d_17">
      <g>
       <use style="stroke:#000000;stroke-width:0.5;" x="125.728710938" xlink:href="#m93b0483c22" y="274.2"/>
      </g>
     </g>
     <g id="text_13">
      <!-- 100 -->
      <g transform="translate(117.066210938 285.7984375)scale(0.1 -0.1)">
       <use xlink:href="#BitstreamVeraSans-Roman-31"/>
       <use x="63.623046875" xlink:href="#BitstreamVeraSans-Roman-30"/>
       <use x="127.24609375" xlink:href="#BitstreamVeraSans-Roman-30"/>
      </g>
     </g>
    </g>
    <g id="xtick_9">
     <g id="line2d_18">
      <g>
       <use style="stroke:#000000;stroke-width:0.5;" x="173.782128906" xlink:href="#m93b0483c22" y="274.2"/>
      </g>
     </g>
     <g id="text_14">
      <!-- 150 -->
      <g transform="translate(165.119628906 285.7984375)scale(0.1 -0.1)">
       <use xlink:href="#BitstreamVeraSans-Roman-31"/>
       <use x="63.623046875" xlink:href="#BitstreamVeraSans-Roman-35"/>
       <use x="127.24609375" xlink:href="#BitstreamVeraSans-Roman-30"/>
      </g>
     </g>
    </g>
    <g id="xtick_10">
     <g id="line2d_19">
      <g>
       <use style="stroke:#000000;stroke-width:0.5;" x="221.835546875" xlink:href="#m93b0483c22" y="274.2"/>
      </g>
     </g>
     <g id="text_15">
      <!-- 200 -->
      <g transform="translate(212.990234375 285.7984375)scale(0.1 -0.1)">
       <use xlink:href="#BitstreamVeraSans-Roman-32"/>
       <use x="63.623046875" xlink:href="#BitstreamVeraSans-Roman-30"/>
       <use x="127.24609375" xlink:href="#BitstreamVeraSans-Roman-30"/>
      </g>
     </g>
    </g>
    <g id="xtick_11">
     <g id="line2d_20">
      <g>
       <use style="stroke:#000000;stroke-width:0.5;" x="269.888964844" xlink:href="#m93b0483c22" y="274.2"/>
      </g>
     </g>
     <g id="text_16">
      <!-- 250 -->
      <g transform="translate(261.043652344 285.7984375)scale(0.1 -0.1)">
       <use xlink:href="#BitstreamVeraSans-Roman-32"/>
       <use x="63.623046875" xlink:href="#BitstreamVeraSans-Roman-35"/>
       <use x="127.24609375" xlink:href="#BitstreamVeraSans-Roman-30"/>
      </g>
     </g>
    </g>
    <g id="xtick_12">
     <g id="line2d_21">
      <g>
       <use style="stroke:#000000;stroke-width:0.5;" x="317.942382812" xlink:href="#m93b0483c22" y="274.2"/>
      </g>
     </g>
     <g id="text_17">
      <!-- 300 -->
      <defs>
       <path d="
M40.5781 39.3125
Q47.6562 37.7969 51.625 33
Q55.6094 28.2188 55.6094 21.1875
Q55.6094 10.4062 48.1875 4.48438
Q40.7656 -1.42188 27.0938 -1.42188
Q22.5156 -1.42188 17.6562 -0.515625
Q12.7969 0.390625 7.625 2.20312
L7.625 11.7188
Q11.7188 9.32812 16.5938 8.10938
Q21.4844 6.89062 26.8125 6.89062
Q36.0781 6.89062 40.9375 10.5469
Q45.7969 14.2031 45.7969 21.1875
Q45.7969 27.6406 41.2812 31.2656
Q36.7656 34.9062 28.7188 34.9062
L20.2188 34.9062
L20.2188 43.0156
L29.1094 43.0156
Q36.375 43.0156 40.2344 45.9219
Q44.0938 48.8281 44.0938 54.2969
Q44.0938 59.9062 40.1094 62.9062
Q36.1406 65.9219 28.7188 65.9219
Q24.6562 65.9219 20.0156 65.0312
Q15.375 64.1562 9.8125 62.3125
L9.8125 71.0938
Q15.4375 72.6562 20.3438 73.4375
Q25.25 74.2188 29.5938 74.2188
Q40.8281 74.2188 47.3594 69.1094
Q53.9062 64.0156 53.9062 55.3281
Q53.9062 49.2656 50.4375 45.0938
Q46.9688 40.9219 40.5781 39.3125" id="BitstreamVeraSans-Roman-33"/>
      </defs>
      <g transform="translate(309.111914062 285.7984375)scale(0.1 -0.1)">
       <use xlink:href="#BitstreamVeraSans-Roman-33"/>
       <use x="63.623046875" xlink:href="#BitstreamVeraSans-Roman-30"/>
       <use x="127.24609375" xlink:href="#BitstreamVeraSans-Roman-30"/>
      </g>
     </g>
    </g>
    <g id="xtick_13">
     <g id="line2d_22">
      <g>
       <use style="stroke:#000000;stroke-width:0.5;" x="365.995800781" xlink:href="#m93b0483c22" y="274.2"/>
      </g>
     </g>
     <g id="text_18">
      <!-- 350 -->
      <g transform="translate(357.165332031 285.7984375)scale(0.1 -0.1)">
       <use xlink:href="#BitstreamVeraSans-Roman-33"/>
       <use x="63.623046875" xlink:href="#BitstreamVeraSans-Roman-35"/>
       <use x="127.24609375" xlink:href="#BitstreamVeraSans-Roman-30"/>
      </g>
     </g>
    </g>
    <g id="xtick_14">
     <g id="line2d_23">
      <g>
       <use style="stroke:#000000;stroke-width:0.5;" x="414.04921875" xlink:href="#m93b0483c22" y="274.2"/>
      </g>
     </g>
     <g id="text_19">
      <!-- 400 -->
      <defs>
       <path d="
M37.7969 64.3125
L12.8906 25.3906
L37.7969 25.3906
z

M35.2031 72.9062
L47.6094 72.9062
L47.6094 25.3906
L58.0156 25.3906
L58.0156 17.1875
L47.6094 17.1875
L47.6094 0
L37.7969 0
L37.7969 17.1875
L4.89062 17.1875
L4.89062 26.7031
z
" id="BitstreamVeraSans-Roman-34"/>
      </defs>
      <g transform="translate(405.08203125 285.7984375)scale(0.1 -0.1)">
       <use xlink:href="#BitstreamVeraSans-Roman-34"/>
       <use x="63.623046875" xlink:href="#BitstreamVeraSans-Roman-30"/>
       <use x="127.24609375" xlink:href="#BitstreamVeraSans-Roman-30"/>
      </g>
     </g>
    </g>
   </g>
   <g id="matplotlib.axis_4">
    <g id="ytick_6">
     <g id="line2d_24">
      <g>
       <use style="stroke:#000000;stroke-width:0.5;" x="19.621875" xlink:href="#m728421d6d4" y="261.573809524"/>
      </g>
     </g>
     <g id="text_20">
      <!-- −2 -->
      <g transform="translate(2.940625 264.333184524)scale(0.1 -0.1)">
       <use xlink:href="#BitstreamVeraSans-Roman-2212"/>
       <use x="83.7890625" xlink:href="#BitstreamVeraSans-Roman-32"/>
      </g>
     </g>
    </g>
    <g id="ytick_7">
     <g id="line2d_25">
      <g>
       <use style="stroke:#000000;stroke-width:0.5;" x="19.621875" xlink:href="#m728421d6d4" y="235.311904762"/>
      </g>
     </g>
     <g id="text_21">
      <!-- −1 -->
      <g transform="translate(2.8625 238.071279762)scale(0.1 -0.1)">
       <use xlink:href="#BitstreamVeraSans-Roman-2212"/>
       <use x="83.7890625" xlink:href="#BitstreamVeraSans-Roman-31"/>
      </g>
     </g>
    </g>
    <g id="ytick_8">
     <g id="line2d_26">
      <g>
       <use style="stroke:#000000;stroke-width:0.5;" x="19.621875" xlink:href="#m728421d6d4" y="209.05"/>
      </g>
     </g>
     <g id="text_22">
      <!-- 0 -->
      <g transform="translate(10.5828125 211.809375)scale(0.1 -0.1)">
       <use xlink:href="#BitstreamVeraSans-Roman-30"/>
      </g>
     </g>
    </g>
    <g id="ytick_9">
     <g id="line2d_27">
      <g>
       <use style="stroke:#000000;stroke-width:0.5;" x="19.621875" xlink:href="#m728421d6d4" y="182.788095238"/>
      </g>
     </g>
     <g id="text_23">
      <!-- 1 -->
      <g transform="translate(11.28125 185.547470238)scale(0.1 -0.1)">
       <use xlink:href="#BitstreamVeraSans-Roman-31"/>
      </g>
     </g>
    </g>
    <g id="ytick_10">
     <g id="line2d_28">
      <g>
       <use style="stroke:#000000;stroke-width:0.5;" x="19.621875" xlink:href="#m728421d6d4" y="156.526190476"/>
      </g>
     </g>
     <g id="text_24">
      <!-- 2 -->
      <g transform="translate(10.99375 159.285565476)scale(0.1 -0.1)">
       <use xlink:href="#BitstreamVeraSans-Roman-32"/>
      </g>
     </g>
    </g>
   </g>
   <g id="patch_8">
    <path d="
M29.6219 153.9
L414.049 153.9" style="fill:none;"/>
   </g>
   <g id="patch_9">
    <path d="
M414.049 264.2
L414.049 153.9" style="fill:none;"/>
   </g>
   <g id="patch_10">
    <path d="
M29.6219 274.2
L414.049 274.2" style="fill:none;stroke:#000000;"/>
   </g>
   <g id="patch_11">
    <path d="
M19.6219 261.574
L19.6219 156.526" style="fill:none;stroke:#000000;"/>
   </g>
  </g>
  <g id="text_25">
   <!-- Amplitude [m] -->
   <defs>
    <path id="BitstreamVeraSans-Roman-20"/>
    <path d="
M8.59375 75.9844
L29.2969 75.9844
L29.2969 69
L17.5781 69
L17.5781 -6.20312
L29.2969 -6.20312
L29.2969 -13.1875
L8.59375 -13.1875
z
" id="BitstreamVeraSans-Roman-5b"/>
    <path d="
M30.4219 75.9844
L30.4219 -13.1875
L9.71875 -13.1875
L9.71875 -6.20312
L21.3906 -6.20312
L21.3906 69
L9.71875 69
L9.71875 75.9844
z
" id="BitstreamVeraSans-Roman-5d"/>
    <path d="
M52 44.1875
Q55.375 50.25 60.0625 53.125
Q64.75 56 71.0938 56
Q79.6406 56 84.2812 50.0156
Q88.9219 44.0469 88.9219 33.0156
L88.9219 0
L79.8906 0
L79.8906 32.7188
Q79.8906 40.5781 77.0938 44.375
Q74.3125 48.1875 68.6094 48.1875
Q61.625 48.1875 57.5625 43.5469
Q53.5156 38.9219 53.5156 30.9062
L53.5156 0
L44.4844 0
L44.4844 32.7188
Q44.4844 40.625 41.7031 44.4062
Q38.9219 48.1875 33.1094 48.1875
Q26.2188 48.1875 22.1562 43.5312
Q18.1094 38.875 18.1094 30.9062
L18.1094 0
L9.07812 0
L9.07812 54.6875
L18.1094 54.6875
L18.1094 46.1875
Q21.1875 51.2188 25.4844 53.6094
Q29.7812 56 35.6875 56
Q41.6562 56 45.8281 52.9688
Q50 49.9531 52 44.1875" id="BitstreamVeraSans-Roman-6d"/>
    <path d="
M9.42188 75.9844
L18.4062 75.9844
L18.4062 0
L9.42188 0
z
" id="BitstreamVeraSans-Roman-6c"/>
    <path d="
M9.42188 54.6875
L18.4062 54.6875
L18.4062 0
L9.42188 0
z

M9.42188 75.9844
L18.4062 75.9844
L18.4062 64.5938
L9.42188 64.5938
z
" id="BitstreamVeraSans-Roman-69"/>
    <path d="
M34.1875 63.1875
L20.7969 26.9062
L47.6094 26.9062
z

M28.6094 72.9062
L39.7969 72.9062
L67.5781 0
L57.3281 0
L50.6875 18.7031
L17.8281 18.7031
L11.1875 0
L0.78125 0
z
" id="BitstreamVeraSans-Roman-41"/>
    <path d="
M56.2031 29.5938
L56.2031 25.2031
L14.8906 25.2031
Q15.4844 15.9219 20.4844 11.0625
Q25.4844 6.20312 34.4219 6.20312
Q39.5938 6.20312 44.4531 7.46875
Q49.3125 8.73438 54.1094 11.2812
L54.1094 2.78125
Q49.2656 0.734375 44.1875 -0.34375
Q39.1094 -1.42188 33.8906 -1.42188
Q20.7969 -1.42188 13.1562 6.1875
Q5.51562 13.8125 5.51562 26.8125
Q5.51562 40.2344 12.7656 48.1094
Q20.0156 56 32.3281 56
Q43.3594 56 49.7812 48.8906
Q56.2031 41.7969 56.2031 29.5938
M47.2188 32.2344
Q47.125 39.5938 43.0938 43.9844
Q39.0625 48.3906 32.4219 48.3906
Q24.9062 48.3906 20.3906 44.1406
Q15.875 39.8906 15.1875 32.1719
z
" id="BitstreamVeraSans-Roman-65"/>
    <path d="
M45.4062 46.3906
L45.4062 75.9844
L54.3906 75.9844
L54.3906 0
L45.4062 0
L45.4062 8.20312
Q42.5781 3.32812 38.25 0.953125
Q33.9375 -1.42188 27.875 -1.42188
Q17.9688 -1.42188 11.7344 6.48438
Q5.51562 14.4062 5.51562 27.2969
Q5.51562 40.1875 11.7344 48.0938
Q17.9688 56 27.875 56
Q33.9375 56 38.25 53.625
Q42.5781 51.2656 45.4062 46.3906
M14.7969 27.2969
Q14.7969 17.3906 18.875 11.75
Q22.9531 6.10938 30.0781 6.10938
Q37.2031 6.10938 41.2969 11.75
Q45.4062 17.3906 45.4062 27.2969
Q45.4062 37.2031 41.2969 42.8438
Q37.2031 48.4844 30.0781 48.4844
Q22.9531 48.4844 18.875 42.8438
Q14.7969 37.2031 14.7969 27.2969" id="BitstreamVeraSans-Roman-64"/>
    <path d="
M18.3125 70.2188
L18.3125 54.6875
L36.8125 54.6875
L36.8125 47.7031
L18.3125 47.7031
L18.3125 18.0156
Q18.3125 11.3281 20.1406 9.42188
Q21.9688 7.51562 27.5938 7.51562
L36.8125 7.51562
L36.8125 0
L27.5938 0
Q17.1875 0 13.2344 3.875
Q9.28125 7.76562 9.28125 18.0156
L9.28125 47.7031
L2.6875 47.7031
L2.6875 54.6875
L9.28125 54.6875
L9.28125 70.2188
z
" id="BitstreamVeraSans-Roman-74"/>
    <path d="
M8.5 21.5781
L8.5 54.6875
L17.4844 54.6875
L17.4844 21.9219
Q17.4844 14.1562 20.5 10.2656
Q23.5312 6.39062 29.5938 6.39062
Q36.8594 6.39062 41.0781 11.0312
Q45.3125 15.6719 45.3125 23.6875
L45.3125 54.6875
L54.2969 54.6875
L54.2969 0
L45.3125 0
L45.3125 8.40625
Q42.0469 3.42188 37.7188 1
Q33.4062 -1.42188 27.6875 -1.42188
Q18.2656 -1.42188 13.375 4.4375
Q8.5 10.2969 8.5 21.5781" id="BitstreamVeraSans-Roman-75"/>
    <path d="
M18.1094 8.20312
L18.1094 -20.7969
L9.07812 -20.7969
L9.07812 54.6875
L18.1094 54.6875
L18.1094 46.3906
Q20.9531 51.2656 25.2656 53.625
Q29.5938 56 35.5938 56
Q45.5625 56 51.7812 48.0938
Q58.0156 40.1875 58.0156 27.2969
Q58.0156 14.4062 51.7812 6.48438
Q45.5625 -1.42188 35.5938 -1.42188
Q29.5938 -1.42188 25.2656 0.953125
Q20.9531 3.32812 18.1094 8.20312
M48.6875 27.2969
Q48.6875 37.2031 44.6094 42.8438
Q40.5312 48.4844 33.4062 48.4844
Q26.2656 48.4844 22.1875 42.8438
Q18.1094 37.2031 18.1094 27.2969
Q18.1094 17.3906 22.1875 11.75
Q26.2656 6.10938 33.4062 6.10938
Q40.5312 6.10938 44.6094 11.75
Q48.6875 17.3906 48.6875 27.2969" id="BitstreamVeraSans-Roman-70"/>
   </defs>
   <g transform="translate(-2.0796875 179.55390625)rotate(-90.0)scale(0.1 -0.1)">
    <use xlink:href="#BitstreamVeraSans-Roman-41"/>
    <use x="68.408203125" xlink:href="#BitstreamVeraSans-Roman-6d"/>
    <use x="165.8203125" xlink:href="#BitstreamVeraSans-Roman-70"/>
    <use x="229.296875" xlink:href="#BitstreamVeraSans-Roman-6c"/>
    <use x="257.080078125" xlink:href="#BitstreamVeraSans-Roman-69"/>
    <use x="284.86328125" xlink:href="#BitstreamVeraSans-Roman-74"/>
    <use x="324.072265625" xlink:href="#BitstreamVeraSans-Roman-75"/>
    <use x="387.451171875" xlink:href="#BitstreamVeraSans-Roman-64"/>
    <use x="450.927734375" xlink:href="#BitstreamVeraSans-Roman-65"/>
    <use x="512.451171875" xlink:href="#BitstreamVeraSans-Roman-20"/>
    <use x="544.23828125" xlink:href="#BitstreamVeraSans-Roman-5b"/>
    <use x="583.251953125" xlink:href="#BitstreamVeraSans-Roman-6d"/>
    <use x="680.6640625" xlink:href="#BitstreamVeraSans-Roman-5d"/>
   </g>
  </g>
  <g id="text_26">
   <!-- Período [s] -->
   <defs>
    <path d="
M19.6719 64.7969
L19.6719 37.4062
L32.0781 37.4062
Q38.9688 37.4062 42.7188 40.9688
Q46.4844 44.5312 46.4844 51.125
Q46.4844 57.6719 42.7188 61.2344
Q38.9688 64.7969 32.0781 64.7969
z

M9.8125 72.9062
L32.0781 72.9062
Q44.3438 72.9062 50.6094 67.3594
Q56.8906 61.8125 56.8906 51.125
Q56.8906 40.3281 50.6094 34.8125
Q44.3438 29.2969 32.0781 29.2969
L19.6719 29.2969
L19.6719 0
L9.8125 0
z
" id="BitstreamVeraSans-Roman-50"/>
    <path d="
M9.42188 54.6875
L18.4062 54.6875
L18.4062 0
L9.42188 0
z

M20.6562 79.9844
L30.375 79.9844
L14.4688 61.625
L6.98438 61.625
z
" id="BitstreamVeraSans-Roman-ed"/>
    <path d="
M30.6094 48.3906
Q23.3906 48.3906 19.1875 42.75
Q14.9844 37.1094 14.9844 27.2969
Q14.9844 17.4844 19.1562 11.8438
Q23.3438 6.20312 30.6094 6.20312
Q37.7969 6.20312 41.9844 11.8594
Q46.1875 17.5312 46.1875 27.2969
Q46.1875 37.0156 41.9844 42.7031
Q37.7969 48.3906 30.6094 48.3906
M30.6094 56
Q42.3281 56 49.0156 48.375
Q55.7188 40.7656 55.7188 27.2969
Q55.7188 13.875 49.0156 6.21875
Q42.3281 -1.42188 30.6094 -1.42188
Q18.8438 -1.42188 12.1719 6.21875
Q5.51562 13.875 5.51562 27.2969
Q5.51562 40.7656 12.1719 48.375
Q18.8438 56 30.6094 56" id="BitstreamVeraSans-Roman-6f"/>
    <path d="
M41.1094 46.2969
Q39.5938 47.1719 37.8125 47.5781
Q36.0312 48 33.8906 48
Q26.2656 48 22.1875 43.0469
Q18.1094 38.0938 18.1094 28.8125
L18.1094 0
L9.07812 0
L9.07812 54.6875
L18.1094 54.6875
L18.1094 46.1875
Q20.9531 51.1719 25.4844 53.5781
Q30.0312 56 36.5312 56
Q37.4531 56 38.5781 55.875
Q39.7031 55.7656 41.0625 55.5156
z
" id="BitstreamVeraSans-Roman-72"/>
    <path d="
M44.2812 53.0781
L44.2812 44.5781
Q40.4844 46.5312 36.375 47.5
Q32.2812 48.4844 27.875 48.4844
Q21.1875 48.4844 17.8438 46.4375
Q14.5 44.3906 14.5 40.2812
Q14.5 37.1562 16.8906 35.375
Q19.2812 33.5938 26.5156 31.9844
L29.5938 31.2969
Q39.1562 29.25 43.1875 25.5156
Q47.2188 21.7812 47.2188 15.0938
Q47.2188 7.46875 41.1875 3.01562
Q35.1562 -1.42188 24.6094 -1.42188
Q20.2188 -1.42188 15.4531 -0.5625
Q10.6875 0.296875 5.42188 2
L5.42188 11.2812
Q10.4062 8.6875 15.2344 7.39062
Q20.0625 6.10938 24.8125 6.10938
Q31.1562 6.10938 34.5625 8.28125
Q37.9844 10.4531 37.9844 14.4062
Q37.9844 18.0625 35.5156 20.0156
Q33.0625 21.9688 24.7031 23.7812
L21.5781 24.5156
Q13.2344 26.2656 9.51562 29.9062
Q5.8125 33.5469 5.8125 39.8906
Q5.8125 47.6094 11.2812 51.7969
Q16.75 56 26.8125 56
Q31.7812 56 36.1719 55.2656
Q40.5781 54.5469 44.2812 53.0781" id="BitstreamVeraSans-Roman-73"/>
   </defs>
   <g style="fill:#cc9900;" transform="translate(436.32 144.0)scale(0.1 -0.1)">
    <use xlink:href="#BitstreamVeraSans-Roman-50"/>
    <use x="56.677734375" xlink:href="#BitstreamVeraSans-Roman-65"/>
    <use x="118.201171875" xlink:href="#BitstreamVeraSans-Roman-72"/>
    <use x="159.314453125" xlink:href="#BitstreamVeraSans-Roman-ed"/>
    <use x="187.09765625" xlink:href="#BitstreamVeraSans-Roman-6f"/>
    <use x="248.279296875" xlink:href="#BitstreamVeraSans-Roman-64"/>
    <use x="311.755859375" xlink:href="#BitstreamVeraSans-Roman-6f"/>
    <use x="372.9375" xlink:href="#BitstreamVeraSans-Roman-20"/>
    <use x="404.724609375" xlink:href="#BitstreamVeraSans-Roman-5b"/>
    <use x="443.73828125" xlink:href="#BitstreamVeraSans-Roman-73"/>
    <use x="495.837890625" xlink:href="#BitstreamVeraSans-Roman-5d"/>
   </g>
  </g>
  <g id="text_27">
   <!-- Distância [m] -->
   <defs>
    <path d="
M54.8906 33.0156
L54.8906 0
L45.9062 0
L45.9062 32.7188
Q45.9062 40.4844 42.875 44.3281
Q39.8438 48.1875 33.7969 48.1875
Q26.5156 48.1875 22.3125 43.5469
Q18.1094 38.9219 18.1094 30.9062
L18.1094 0
L9.07812 0
L9.07812 54.6875
L18.1094 54.6875
L18.1094 46.1875
Q21.3438 51.125 25.7031 53.5625
Q30.0781 56 35.7969 56
Q45.2188 56 50.0469 50.1719
Q54.8906 44.3438 54.8906 33.0156" id="BitstreamVeraSans-Roman-6e"/>
    <path d="
M34.2812 27.4844
Q23.3906 27.4844 19.1875 25
Q14.9844 22.5156 14.9844 16.5
Q14.9844 11.7188 18.1406 8.90625
Q21.2969 6.10938 26.7031 6.10938
Q34.1875 6.10938 38.7031 11.4062
Q43.2188 16.7031 43.2188 25.4844
L43.2188 27.4844
z

M52.2031 31.2031
L52.2031 0
L43.2188 0
L43.2188 8.29688
Q40.1406 3.32812 35.5469 0.953125
Q30.9531 -1.42188 24.3125 -1.42188
Q15.9219 -1.42188 10.9531 3.29688
Q6 8.01562 6 15.9219
Q6 25.1406 12.1719 29.8281
Q18.3594 34.5156 30.6094 34.5156
L43.2188 34.5156
L43.2188 35.4062
Q43.2188 41.6094 39.1406 45
Q35.0625 48.3906 27.6875 48.3906
Q23 48.3906 18.5469 47.2656
Q14.1094 46.1406 10.0156 43.8906
L10.0156 52.2031
Q14.9375 54.1094 19.5781 55.0469
Q24.2188 56 28.6094 56
Q40.4844 56 46.3438 49.8438
Q52.2031 43.7031 52.2031 31.2031
M25.3906 79.9844
L32.6094 79.9844
L44.5781 61.625
L37.7969 61.625
L29 73.5781
L20.2188 61.625
L13.4219 61.625
z
" id="BitstreamVeraSans-Roman-e2"/>
    <path d="
M19.6719 64.7969
L19.6719 8.10938
L31.5938 8.10938
Q46.6875 8.10938 53.6875 14.9375
Q60.6875 21.7812 60.6875 36.5312
Q60.6875 51.1719 53.6875 57.9844
Q46.6875 64.7969 31.5938 64.7969
z

M9.8125 72.9062
L30.0781 72.9062
Q51.2656 72.9062 61.1719 64.0938
Q71.0938 55.2812 71.0938 36.5312
Q71.0938 17.6719 61.125 8.82812
Q51.1719 0 30.0781 0
L9.8125 0
z
" id="BitstreamVeraSans-Roman-44"/>
    <path d="
M34.2812 27.4844
Q23.3906 27.4844 19.1875 25
Q14.9844 22.5156 14.9844 16.5
Q14.9844 11.7188 18.1406 8.90625
Q21.2969 6.10938 26.7031 6.10938
Q34.1875 6.10938 38.7031 11.4062
Q43.2188 16.7031 43.2188 25.4844
L43.2188 27.4844
z

M52.2031 31.2031
L52.2031 0
L43.2188 0
L43.2188 8.29688
Q40.1406 3.32812 35.5469 0.953125
Q30.9531 -1.42188 24.3125 -1.42188
Q15.9219 -1.42188 10.9531 3.29688
Q6 8.01562 6 15.9219
Q6 25.1406 12.1719 29.8281
Q18.3594 34.5156 30.6094 34.5156
L43.2188 34.5156
L43.2188 35.4062
Q43.2188 41.6094 39.1406 45
Q35.0625 48.3906 27.6875 48.3906
Q23 48.3906 18.5469 47.2656
Q14.1094 46.1406 10.0156 43.8906
L10.0156 52.2031
Q14.9375 54.1094 19.5781 55.0469
Q24.2188 56 28.6094 56
Q40.4844 56 46.3438 49.8438
Q52.2031 43.7031 52.2031 31.2031" id="BitstreamVeraSans-Roman-61"/>
    <path d="
M48.7812 52.5938
L48.7812 44.1875
Q44.9688 46.2969 41.1406 47.3438
Q37.3125 48.3906 33.4062 48.3906
Q24.6562 48.3906 19.8125 42.8438
Q14.9844 37.3125 14.9844 27.2969
Q14.9844 17.2812 19.8125 11.7344
Q24.6562 6.20312 33.4062 6.20312
Q37.3125 6.20312 41.1406 7.25
Q44.9688 8.29688 48.7812 10.4062
L48.7812 2.09375
Q45.0156 0.34375 40.9844 -0.53125
Q36.9688 -1.42188 32.4219 -1.42188
Q20.0625 -1.42188 12.7812 6.34375
Q5.51562 14.1094 5.51562 27.2969
Q5.51562 40.6719 12.8594 48.3281
Q20.2188 56 33.0156 56
Q37.1562 56 41.1094 55.1406
Q45.0625 54.2969 48.7812 52.5938" id="BitstreamVeraSans-Roman-63"/>
   </defs>
   <g style="fill:#99cc33;" transform="translate(436.32 273.6)scale(0.1 -0.1)">
    <use xlink:href="#BitstreamVeraSans-Roman-44"/>
    <use x="77.001953125" xlink:href="#BitstreamVeraSans-Roman-69"/>
    <use x="104.78515625" xlink:href="#BitstreamVeraSans-Roman-73"/>
    <use x="156.884765625" xlink:href="#BitstreamVeraSans-Roman-74"/>
    <use x="196.09375" xlink:href="#BitstreamVeraSans-Roman-e2"/>
    <use x="257.373046875" xlink:href="#BitstreamVeraSans-Roman-6e"/>
    <use x="320.751953125" xlink:href="#BitstreamVeraSans-Roman-63"/>
    <use x="375.732421875" xlink:href="#BitstreamVeraSans-Roman-69"/>
    <use x="403.515625" xlink:href="#BitstreamVeraSans-Roman-61"/>
    <use x="464.794921875" xlink:href="#BitstreamVeraSans-Roman-20"/>
    <use x="496.58203125" xlink:href="#BitstreamVeraSans-Roman-5b"/>
    <use x="535.595703125" xlink:href="#BitstreamVeraSans-Roman-6d"/>
    <use x="633.0078125" xlink:href="#BitstreamVeraSans-Roman-5d"/>
   </g>
  </g>
 </g>
 <defs>
  <clipPath id="p8b509fd436">
   <rect height="110.3" width="384.42734375" x="29.621875" y="15.3"/>
  </clipPath>
  <clipPath id="p33d312b811">
   <rect height="110.3" width="384.42734375" x="29.621875" y="153.9"/>
  </clipPath>
 </defs>
</svg>
