<?xml version="1.0" encoding="utf-8" standalone="no"?>
<!DOCTYPE svg PUBLIC "-//W3C//DTD SVG 1.1//EN"
  "http://www.w3.org/Graphics/SVG/1.1/DTD/svg11.dtd">
<!-- Created with matplotlib (http://matplotlib.org/) -->
<svg height="288pt" version="1.1" viewBox="0 0 288 288" width="288pt" xmlns="http://www.w3.org/2000/svg" xmlns:xlink="http://www.w3.org/1999/xlink">
 <defs>
  <style type="text/css">
*{stroke-linecap:butt;stroke-linejoin:round;}
  </style>
 </defs>
 <g id="figure_1">
  <g id="patch_1">
   <path d="
M0 288
L288 288
L288 0
L0 0
z
" style="fill:#ffffff;"/>
  </g>
  <g id="axes_1">
   <g id="patch_2">
    <path d="
M48.2906 249.834
L253.23 249.834
L253.23 24.8
L48.2906 24.8
z
" style="fill:#ffffff;"/>
   </g>
   <g id="line2d_1">
    <path clip-path="url(#p9149830826)" d="
M150.761 48.9108
L149.042 49.0752
L147.394 49.5617
L145.884 50.3503
L144.573 51.4088
L143.516 52.694
L142.754 54.1531
L142.321 55.7266
L142.232 57.35
L142.493 58.957
L143.091 60.4818
L144.004 61.862
L145.193 63.0411
L146.609 63.971
L148.196 64.6136
L149.887 64.9426
L151.614 64.9444
L153.306 64.6192
L154.895 63.9801
L156.313 63.0533
L157.505 61.8768
L158.421 60.4986
L159.024 58.9751
L159.288 57.3687
L159.204 55.7451
L158.774 54.1706
L158.016 52.7098
L156.962 51.4224
L155.653 50.361
L154.145 49.5691
L152.498 49.079
L150.78 48.9108
L149.062 49.0715
L147.413 49.5543
L145.9 50.3396
L144.587 51.3953
L143.526 52.6781
L142.761 54.1356
L142.324 55.7081
L142.231 57.3313
L142.488 58.9389
L143.083 60.465
L143.992 61.8472
L145.177 63.0289
L146.592 63.9619
L148.177 64.608
L149.867 64.9406
L151.594 64.9463
L153.287 64.6247
L154.877 63.9891
L156.298 63.0655
L157.493 61.8915
L158.412 60.5153
L159.019 58.9932
L159.287 57.3874
L159.207 55.7636
L158.781 54.1882
L158.027 52.7257
L156.975 51.436
L155.67 50.3717
L154.163 49.5765
L152.518 49.0828
L150.8 48.9109" style="fill:none;stroke:#000000;stroke-linecap:square;"/>
   </g>
   <g id="line2d_2">
    <path clip-path="url(#p9149830826)" d="
M150.761 85.6181
L150.017 85.6892
L149.304 85.8997
L148.651 86.2409
L148.083 86.699
L147.626 87.255
L147.296 87.8863
L147.109 88.5672
L147.07 89.2696
L147.183 89.9649
L147.442 90.6246
L147.837 91.2218
L148.351 91.732
L148.964 92.1344
L149.651 92.4124
L150.383 92.5547
L151.13 92.5555
L151.862 92.4148
L152.549 92.1383
L153.163 91.7373
L153.679 91.2282
L154.075 90.6319
L154.336 89.9727
L154.45 89.2777
L154.414 88.5751
L154.228 87.8939
L153.9 87.2619
L153.444 86.7048
L152.878 86.2456
L152.225 85.9029
L151.512 85.6909
L150.769 85.6181
L150.025 85.6876
L149.312 85.8965
L148.658 86.2363
L148.089 86.6931
L147.63 87.2481
L147.299 87.8788
L147.11 88.5592
L147.07 89.2615
L147.181 89.9571
L147.438 90.6174
L147.832 91.2154
L148.345 91.7267
L148.957 92.1304
L149.643 92.4099
L150.374 92.5539
L151.121 92.5563
L151.854 92.4172
L152.542 92.1422
L153.157 91.7425
L153.674 91.2346
L154.071 90.6391
L154.334 89.9805
L154.45 89.2857
L154.415 88.5831
L154.231 87.9015
L153.904 87.2687
L153.45 86.7107
L152.885 86.2502
L152.233 85.9061
L151.521 85.6925
L150.778 85.6182" style="fill:none;stroke:#000000;stroke-linecap:square;"/>
   </g>
   <g id="line2d_3">
    <path clip-path="url(#p9149830826)" d="
M150.761 119.739
L150.439 119.769
L150.13 119.861
L149.848 120.008
L149.602 120.206
L149.404 120.447
L149.262 120.72
L149.18 121.015
L149.164 121.319
L149.213 121.619
L149.325 121.905
L149.496 122.163
L149.718 122.384
L149.983 122.558
L150.28 122.678
L150.597 122.74
L150.92 122.74
L151.237 122.679
L151.534 122.56
L151.8 122.386
L152.023 122.166
L152.195 121.908
L152.307 121.623
L152.357 121.322
L152.341 121.018
L152.261 120.723
L152.119 120.45
L151.921 120.209
L151.677 120.01
L151.394 119.862
L151.086 119.77
L150.764 119.739
L150.443 119.769
L150.134 119.859
L149.851 120.006
L149.605 120.204
L149.406 120.444
L149.263 120.717
L149.181 121.011
L149.164 121.315
L149.212 121.616
L149.323 121.902
L149.493 122.161
L149.715 122.382
L149.98 122.556
L150.277 122.677
L150.593 122.74
L150.917 122.741
L151.234 122.681
L151.531 122.562
L151.797 122.389
L152.021 122.169
L152.193 121.911
L152.307 121.626
L152.357 121.326
L152.342 121.022
L152.262 120.727
L152.121 120.453
L151.924 120.211
L151.68 120.012
L151.398 119.863
L151.09 119.771
L150.768 119.739" style="fill:none;stroke:#000000;stroke-linecap:square;"/>
   </g>
   <g id="line2d_4">
    <path clip-path="url(#p9149830826)" d="
M150.761 152.74
L150.621 152.753
L150.488 152.793
L150.366 152.857
L150.259 152.942
L150.174 153.047
L150.112 153.165
L150.077 153.292
L150.07 153.424
L150.091 153.554
L150.139 153.677
L150.213 153.789
L150.31 153.885
L150.424 153.96
L150.553 154.012
L150.69 154.039
L150.83 154.039
L150.967 154.012
L151.095 153.961
L151.21 153.886
L151.307 153.79
L151.381 153.679
L151.43 153.555
L151.451 153.425
L151.444 153.294
L151.41 153.166
L151.348 153.048
L151.263 152.944
L151.157 152.858
L151.035 152.793
L150.901 152.754
L150.762 152.74
L150.623 152.753
L150.489 152.792
L150.367 152.856
L150.26 152.941
L150.175 153.045
L150.113 153.163
L150.077 153.291
L150.07 153.422
L150.09 153.552
L150.139 153.676
L150.212 153.788
L150.308 153.884
L150.423 153.959
L150.551 154.012
L150.688 154.039
L150.828 154.039
L150.965 154.013
L151.094 153.961
L151.209 153.887
L151.306 153.792
L151.38 153.68
L151.429 153.557
L151.451 153.427
L151.445 153.295
L151.41 153.168
L151.349 153.049
L151.264 152.945
L151.158 152.858
L151.036 152.794
L150.903 152.754
L150.764 152.74" style="fill:none;stroke:#000000;stroke-linecap:square;"/>
   </g>
   <g id="line2d_5">
    <path clip-path="url(#p9149830826)" d="
M150.761 185.257
L150.7 185.263
L150.643 185.28
L150.59 185.308
L150.544 185.345
L150.507 185.39
L150.48 185.441
L150.465 185.496
L150.462 185.553
L150.471 185.609
L150.492 185.663
L150.524 185.711
L150.565 185.752
L150.615 185.785
L150.671 185.808
L150.73 185.819
L150.79 185.819
L150.85 185.808
L150.905 185.785
L150.955 185.753
L150.997 185.712
L151.029 185.663
L151.05 185.61
L151.059 185.554
L151.056 185.497
L151.041 185.442
L151.015 185.39
L150.978 185.345
L150.932 185.308
L150.879 185.28
L150.821 185.263
L150.761 185.257
L150.701 185.263
L150.643 185.28
L150.59 185.307
L150.544 185.344
L150.507 185.389
L150.48 185.44
L150.465 185.495
L150.462 185.552
L150.471 185.609
L150.491 185.662
L150.523 185.711
L150.565 185.752
L150.614 185.785
L150.67 185.807
L150.729 185.819
L150.79 185.819
L150.849 185.808
L150.905 185.786
L150.955 185.753
L150.997 185.712
L151.029 185.664
L151.05 185.611
L151.059 185.554
L151.057 185.497
L151.042 185.442
L151.015 185.391
L150.978 185.346
L150.933 185.308
L150.88 185.28
L150.822 185.263
L150.762 185.257" style="fill:none;stroke:#000000;stroke-linecap:square;"/>
   </g>
   <g id="line2d_6">
    <path clip-path="url(#p9149830826)" d="
M150.761 217.565
L150.734 217.567
L150.709 217.575
L150.687 217.587
L150.667 217.603
L150.651 217.622
L150.639 217.644
L150.633 217.668
L150.631 217.693
L150.635 217.717
L150.644 217.74
L150.658 217.761
L150.676 217.779
L150.698 217.793
L150.722 217.803
L150.747 217.808
L150.773 217.808
L150.799 217.803
L150.823 217.793
L150.845 217.779
L150.863 217.761
L150.877 217.74
L150.886 217.717
L150.89 217.693
L150.889 217.668
L150.882 217.644
L150.871 217.622
L150.855 217.603
L150.835 217.587
L150.812 217.575
L150.787 217.567
L150.761 217.565
L150.735 217.567
L150.71 217.574
L150.687 217.586
L150.667 217.602
L150.651 217.622
L150.639 217.644
L150.633 217.668
L150.631 217.692
L150.635 217.717
L150.644 217.74
L150.658 217.761
L150.676 217.779
L150.697 217.793
L150.721 217.803
L150.747 217.808
L150.773 217.808
L150.799 217.803
L150.823 217.793
L150.845 217.779
L150.863 217.762
L150.877 217.741
L150.886 217.718
L150.89 217.693
L150.889 217.669
L150.882 217.645
L150.871 217.623
L150.855 217.603
L150.835 217.587
L150.812 217.575
L150.787 217.567
L150.761 217.565" style="fill:none;stroke:#000000;stroke-linecap:square;"/>
   </g>
   <g id="line2d_7">
    <path clip-path="url(#p9149830826)" d="
M65.4861 48.9108
L68.2369 49.0752
L70.9877 49.5617
L73.7385 50.3503
L76.4893 51.4088
L79.2401 52.694
L81.9909 54.1531
L84.7416 55.7266
L87.4924 57.35
L90.2432 58.957
L92.994 60.4818
L95.7448 61.862
L98.4956 63.0411
L101.246 63.971
L103.997 64.6136
L106.748 64.9426
L109.499 64.9444
L112.25 64.6192
L115 63.9801
L117.751 63.0533
L120.502 61.8768
L123.253 60.4986
L126.003 58.9751
L128.754 57.3687
L131.505 55.7451
L134.256 54.1706
L137.007 52.7098
L139.757 51.4224
L142.508 50.361
L145.259 49.5691
L148.01 49.079
L150.761 48.9108
L153.511 49.0715
L156.262 49.5543
L159.013 50.3396
L161.764 51.3953
L164.514 52.6781
L167.265 54.1356
L170.016 55.7081
L172.767 57.3313
L175.518 58.9389
L178.268 60.465
L181.019 61.8472
L183.77 63.0289
L186.521 63.9619
L189.272 64.608
L192.022 64.9406
L194.773 64.9463
L197.524 64.6247
L200.275 63.9891
L203.026 63.0655
L205.776 61.8915
L208.527 60.5153
L211.278 58.9932
L214.029 57.3874
L216.779 55.7636
L219.53 54.1882
L222.281 52.7257
L225.032 51.436
L227.783 50.3717
L230.533 49.5765
L233.284 49.0828
L236.035 48.9109" style="fill:none;stroke:#000000;stroke-dasharray:1.000000,3.000000;stroke-dashoffset:0.0;"/>
   </g>
   <g id="matplotlib.axis_1">
    <g id="xtick_1">
     <g id="line2d_8">
      <path clip-path="url(#p9149830826)" d="
M48.2906 249.834
L48.2906 24.8" style="fill:none;stroke:#000000;stroke-dasharray:1.000000,3.000000;stroke-dashoffset:0.0;stroke-width:0.5;"/>
     </g>
     <g id="line2d_9">
      <defs>
       <path d="
M0 0
L0 -4" id="m93b0483c22" style="stroke:#000000;stroke-width:0.5;"/>
      </defs>
      <g>
       <use style="stroke:#000000;stroke-width:0.5;" x="48.290625" xlink:href="#m93b0483c22" y="249.834375"/>
      </g>
     </g>
     <g id="line2d_10">
      <defs>
       <path d="
M0 0
L0 4" id="m741efc42ff" style="stroke:#000000;stroke-width:0.5;"/>
      </defs>
      <g>
       <use style="stroke:#000000;stroke-width:0.5;" x="48.290625" xlink:href="#m741efc42ff" y="24.8"/>
      </g>
     </g>
     <g id="text_1">
      <!-- −6 -->
      <defs>
       <path d="
M10.5938 35.5
L73.1875 35.5
L73.1875 27.2031
L10.5938 27.2031
z
" id="BitstreamVeraSans-Roman-2212"/>
       <path d="
M33.0156 40.375
Q26.375 40.375 22.4844 35.8281
Q18.6094 31.2969 18.6094 23.3906
Q18.6094 15.5312 22.4844 10.9531
Q26.375 6.39062 33.0156 6.39062
Q39.6562 6.39062 43.5312 10.9531
Q47.4062 15.5312 47.4062 23.3906
Q47.4062 31.2969 43.5312 35.8281
Q39.6562 40.375 33.0156 40.375
M52.5938 71.2969
L52.5938 62.3125
Q48.875 64.0625 45.0938 64.9844
Q41.3125 65.9219 37.5938 65.9219
Q27.8281 65.9219 22.6719 59.3281
Q17.5312 52.7344 16.7969 39.4062
Q19.6719 43.6562 24.0156 45.9219
Q28.375 48.1875 33.5938 48.1875
Q44.5781 48.1875 50.9531 41.5156
Q57.3281 34.8594 57.3281 23.3906
Q57.3281 12.1562 50.6875 5.35938
Q44.0469 -1.42188 33.0156 -1.42188
Q20.3594 -1.42188 13.6719 8.26562
Q6.98438 17.9688 6.98438 36.375
Q6.98438 53.6562 15.1875 63.9375
Q23.3906 74.2188 37.2031 74.2188
Q40.9219 74.2188 44.7031 73.4844
Q48.4844 72.75 52.5938 71.2969" id="BitstreamVeraSans-Roman-36"/>
      </defs>
      <g transform="translate(41.7640625 261.4328125)scale(0.1 -0.1)">
       <use xlink:href="#BitstreamVeraSans-Roman-2212"/>
       <use x="83.7890625" xlink:href="#BitstreamVeraSans-Roman-36"/>
      </g>
     </g>
    </g>
    <g id="xtick_2">
     <g id="line2d_11">
      <path clip-path="url(#p9149830826)" d="
M82.4473 249.834
L82.4473 24.8" style="fill:none;stroke:#000000;stroke-dasharray:1.000000,3.000000;stroke-dashoffset:0.0;stroke-width:0.5;"/>
     </g>
     <g id="line2d_12">
      <g>
       <use style="stroke:#000000;stroke-width:0.5;" x="82.447265625" xlink:href="#m93b0483c22" y="249.834375"/>
      </g>
     </g>
     <g id="line2d_13">
      <g>
       <use style="stroke:#000000;stroke-width:0.5;" x="82.447265625" xlink:href="#m741efc42ff" y="24.8"/>
      </g>
     </g>
     <g id="text_2">
      <!-- −4 -->
      <defs>
       <path d="
M37.7969 64.3125
L12.8906 25.3906
L37.7969 25.3906
z

M35.2031 72.9062
L47.6094 72.9062
L47.6094 25.3906
L58.0156 25.3906
L58.0156 17.1875
L47.6094 17.1875
L47.6094 0
L37.7969 0
L37.7969 17.1875
L4.89062 17.1875
L4.89062 26.7031
z
" id="BitstreamVeraSans-Roman-34"/>
      </defs>
      <g transform="translate(75.886328125 261.4328125)scale(0.1 -0.1)">
       <use xlink:href="#BitstreamVeraSans-Roman-2212"/>
       <use x="83.7890625" xlink:href="#BitstreamVeraSans-Roman-34"/>
      </g>
     </g>
    </g>
    <g id="xtick_3">
     <g id="line2d_14">
      <path clip-path="url(#p9149830826)" d="
M116.604 249.834
L116.604 24.8" style="fill:none;stroke:#000000;stroke-dasharray:1.000000,3.000000;stroke-dashoffset:0.0;stroke-width:0.5;"/>
     </g>
     <g id="line2d_15">
      <g>
       <use style="stroke:#000000;stroke-width:0.5;" x="116.60390625" xlink:href="#m93b0483c22" y="249.834375"/>
      </g>
     </g>
     <g id="line2d_16">
      <g>
       <use style="stroke:#000000;stroke-width:0.5;" x="116.60390625" xlink:href="#m741efc42ff" y="24.8"/>
      </g>
     </g>
     <g id="text_3">
      <!-- −2 -->
      <defs>
       <path d="
M19.1875 8.29688
L53.6094 8.29688
L53.6094 0
L7.32812 0
L7.32812 8.29688
Q12.9375 14.1094 22.625 23.8906
Q32.3281 33.6875 34.8125 36.5312
Q39.5469 41.8438 41.4219 45.5312
Q43.3125 49.2188 43.3125 52.7812
Q43.3125 58.5938 39.2344 62.25
Q35.1562 65.9219 28.6094 65.9219
Q23.9688 65.9219 18.8125 64.3125
Q13.6719 62.7031 7.8125 59.4219
L7.8125 69.3906
Q13.7656 71.7812 18.9375 73
Q24.125 74.2188 28.4219 74.2188
Q39.75 74.2188 46.4844 68.5469
Q53.2188 62.8906 53.2188 53.4219
Q53.2188 48.9219 51.5312 44.8906
Q49.8594 40.875 45.4062 35.4062
Q44.1875 33.9844 37.6406 27.2188
Q31.1094 20.4531 19.1875 8.29688" id="BitstreamVeraSans-Roman-32"/>
      </defs>
      <g transform="translate(110.26328125 261.4328125)scale(0.1 -0.1)">
       <use xlink:href="#BitstreamVeraSans-Roman-2212"/>
       <use x="83.7890625" xlink:href="#BitstreamVeraSans-Roman-32"/>
      </g>
     </g>
    </g>
    <g id="xtick_4">
     <g id="line2d_17">
      <path clip-path="url(#p9149830826)" d="
M150.761 249.834
L150.761 24.8" style="fill:none;stroke:#000000;stroke-dasharray:1.000000,3.000000;stroke-dashoffset:0.0;stroke-width:0.5;"/>
     </g>
     <g id="line2d_18">
      <g>
       <use style="stroke:#000000;stroke-width:0.5;" x="150.760546875" xlink:href="#m93b0483c22" y="249.834375"/>
      </g>
     </g>
     <g id="line2d_19">
      <g>
       <use style="stroke:#000000;stroke-width:0.5;" x="150.760546875" xlink:href="#m741efc42ff" y="24.8"/>
      </g>
     </g>
     <g id="text_4">
      <!-- 0 -->
      <defs>
       <path d="
M31.7812 66.4062
Q24.1719 66.4062 20.3281 58.9062
Q16.5 51.4219 16.5 36.375
Q16.5 21.3906 20.3281 13.8906
Q24.1719 6.39062 31.7812 6.39062
Q39.4531 6.39062 43.2812 13.8906
Q47.125 21.3906 47.125 36.375
Q47.125 51.4219 43.2812 58.9062
Q39.4531 66.4062 31.7812 66.4062
M31.7812 74.2188
Q44.0469 74.2188 50.5156 64.5156
Q56.9844 54.8281 56.9844 36.375
Q56.9844 17.9688 50.5156 8.26562
Q44.0469 -1.42188 31.7812 -1.42188
Q19.5312 -1.42188 13.0625 8.26562
Q6.59375 17.9688 6.59375 36.375
Q6.59375 54.8281 13.0625 64.5156
Q19.5312 74.2188 31.7812 74.2188" id="BitstreamVeraSans-Roman-30"/>
      </defs>
      <g transform="translate(148.241015625 261.4328125)scale(0.1 -0.1)">
       <use xlink:href="#BitstreamVeraSans-Roman-30"/>
      </g>
     </g>
    </g>
    <g id="xtick_5">
     <g id="line2d_20">
      <path clip-path="url(#p9149830826)" d="
M184.917 249.834
L184.917 24.8" style="fill:none;stroke:#000000;stroke-dasharray:1.000000,3.000000;stroke-dashoffset:0.0;stroke-width:0.5;"/>
     </g>
     <g id="line2d_21">
      <g>
       <use style="stroke:#000000;stroke-width:0.5;" x="184.9171875" xlink:href="#m93b0483c22" y="249.834375"/>
      </g>
     </g>
     <g id="line2d_22">
      <g>
       <use style="stroke:#000000;stroke-width:0.5;" x="184.9171875" xlink:href="#m741efc42ff" y="24.8"/>
      </g>
     </g>
     <g id="text_5">
      <!-- 2 -->
      <g transform="translate(182.603125 261.4328125)scale(0.1 -0.1)">
       <use xlink:href="#BitstreamVeraSans-Roman-32"/>
      </g>
     </g>
    </g>
    <g id="xtick_6">
     <g id="line2d_23">
      <path clip-path="url(#p9149830826)" d="
M219.074 249.834
L219.074 24.8" style="fill:none;stroke:#000000;stroke-dasharray:1.000000,3.000000;stroke-dashoffset:0.0;stroke-width:0.5;"/>
     </g>
     <g id="line2d_24">
      <g>
       <use style="stroke:#000000;stroke-width:0.5;" x="219.073828125" xlink:href="#m93b0483c22" y="249.834375"/>
      </g>
     </g>
     <g id="line2d_25">
      <g>
       <use style="stroke:#000000;stroke-width:0.5;" x="219.073828125" xlink:href="#m741efc42ff" y="24.8"/>
      </g>
     </g>
     <g id="text_6">
      <!-- 4 -->
      <g transform="translate(216.417578125 261.4328125)scale(0.1 -0.1)">
       <use xlink:href="#BitstreamVeraSans-Roman-34"/>
      </g>
     </g>
    </g>
    <g id="xtick_7">
     <g id="line2d_26">
      <path clip-path="url(#p9149830826)" d="
M253.23 249.834
L253.23 24.8" style="fill:none;stroke:#000000;stroke-dasharray:1.000000,3.000000;stroke-dashoffset:0.0;stroke-width:0.5;"/>
     </g>
     <g id="line2d_27">
      <g>
       <use style="stroke:#000000;stroke-width:0.5;" x="253.23046875" xlink:href="#m93b0483c22" y="249.834375"/>
      </g>
     </g>
     <g id="line2d_28">
      <g>
       <use style="stroke:#000000;stroke-width:0.5;" x="253.23046875" xlink:href="#m741efc42ff" y="24.8"/>
      </g>
     </g>
     <g id="text_7">
      <!-- 6 -->
      <g transform="translate(250.71328125 261.4328125)scale(0.1 -0.1)">
       <use xlink:href="#BitstreamVeraSans-Roman-36"/>
      </g>
     </g>
    </g>
    <g id="text_8">
     <!-- Distância [m] -->
     <defs>
      <path id="BitstreamVeraSans-Roman-20"/>
      <path d="
M34.2812 27.4844
Q23.3906 27.4844 19.1875 25
Q14.9844 22.5156 14.9844 16.5
Q14.9844 11.7188 18.1406 8.90625
Q21.2969 6.10938 26.7031 6.10938
Q34.1875 6.10938 38.7031 11.4062
Q43.2188 16.7031 43.2188 25.4844
L43.2188 27.4844
z

M52.2031 31.2031
L52.2031 0
L43.2188 0
L43.2188 8.29688
Q40.1406 3.32812 35.5469 0.953125
Q30.9531 -1.42188 24.3125 -1.42188
Q15.9219 -1.42188 10.9531 3.29688
Q6 8.01562 6 15.9219
Q6 25.1406 12.1719 29.8281
Q18.3594 34.5156 30.6094 34.5156
L43.2188 34.5156
L43.2188 35.4062
Q43.2188 41.6094 39.1406 45
Q35.0625 48.3906 27.6875 48.3906
Q23 48.3906 18.5469 47.2656
Q14.1094 46.1406 10.0156 43.8906
L10.0156 52.2031
Q14.9375 54.1094 19.5781 55.0469
Q24.2188 56 28.6094 56
Q40.4844 56 46.3438 49.8438
Q52.2031 43.7031 52.2031 31.2031
M25.3906 79.9844
L32.6094 79.9844
L44.5781 61.625
L37.7969 61.625
L29 73.5781
L20.2188 61.625
L13.4219 61.625
z
" id="BitstreamVeraSans-Roman-e2"/>
      <path d="
M30.4219 75.9844
L30.4219 -13.1875
L9.71875 -13.1875
L9.71875 -6.20312
L21.3906 -6.20312
L21.3906 69
L9.71875 69
L9.71875 75.9844
z
" id="BitstreamVeraSans-Roman-5d"/>
      <path d="
M54.8906 33.0156
L54.8906 0
L45.9062 0
L45.9062 32.7188
Q45.9062 40.4844 42.875 44.3281
Q39.8438 48.1875 33.7969 48.1875
Q26.5156 48.1875 22.3125 43.5469
Q18.1094 38.9219 18.1094 30.9062
L18.1094 0
L9.07812 0
L9.07812 54.6875
L18.1094 54.6875
L18.1094 46.1875
Q21.3438 51.125 25.7031 53.5625
Q30.0781 56 35.7969 56
Q45.2188 56 50.0469 50.1719
Q54.8906 44.3438 54.8906 33.0156" id="BitstreamVeraSans-Roman-6e"/>
      <path d="
M52 44.1875
Q55.375 50.25 60.0625 53.125
Q64.75 56 71.0938 56
Q79.6406 56 84.2812 50.0156
Q88.9219 44.0469 88.9219 33.0156
L88.9219 0
L79.8906 0
L79.8906 32.7188
Q79.8906 40.5781 77.0938 44.375
Q74.3125 48.1875 68.6094 48.1875
Q61.625 48.1875 57.5625 43.5469
Q53.5156 38.9219 53.5156 30.9062
L53.5156 0
L44.4844 0
L44.4844 32.7188
Q44.4844 40.625 41.7031 44.4062
Q38.9219 48.1875 33.1094 48.1875
Q26.2188 48.1875 22.1562 43.5312
Q18.1094 38.875 18.1094 30.9062
L18.1094 0
L9.07812 0
L9.07812 54.6875
L18.1094 54.6875
L18.1094 46.1875
Q21.1875 51.2188 25.4844 53.6094
Q29.7812 56 35.6875 56
Q41.6562 56 45.8281 52.9688
Q50 49.9531 52 44.1875" id="BitstreamVeraSans-Roman-6d"/>
      <path d="
M8.59375 75.9844
L29.2969 75.9844
L29.2969 69
L17.5781 69
L17.5781 -6.20312
L29.2969 -6.20312
L29.2969 -13.1875
L8.59375 -13.1875
z
" id="BitstreamVeraSans-Roman-5b"/>
      <path d="
M19.6719 64.7969
L19.6719 8.10938
L31.5938 8.10938
Q46.6875 8.10938 53.6875 14.9375
Q60.6875 21.7812 60.6875 36.5312
Q60.6875 51.1719 53.6875 57.9844
Q46.6875 64.7969 31.5938 64.7969
z

M9.8125 72.9062
L30.0781 72.9062
Q51.2656 72.9062 61.1719 64.0938
Q71.0938 55.2812 71.0938 36.5312
Q71.0938 17.6719 61.125 8.82812
Q51.1719 0 30.0781 0
L9.8125 0
z
" id="BitstreamVeraSans-Roman-44"/>
      <path d="
M9.42188 54.6875
L18.4062 54.6875
L18.4062 0
L9.42188 0
z

M9.42188 75.9844
L18.4062 75.9844
L18.4062 64.5938
L9.42188 64.5938
z
" id="BitstreamVeraSans-Roman-69"/>
      <path d="
M18.3125 70.2188
L18.3125 54.6875
L36.8125 54.6875
L36.8125 47.7031
L18.3125 47.7031
L18.3125 18.0156
Q18.3125 11.3281 20.1406 9.42188
Q21.9688 7.51562 27.5938 7.51562
L36.8125 7.51562
L36.8125 0
L27.5938 0
Q17.1875 0 13.2344 3.875
Q9.28125 7.76562 9.28125 18.0156
L9.28125 47.7031
L2.6875 47.7031
L2.6875 54.6875
L9.28125 54.6875
L9.28125 70.2188
z
" id="BitstreamVeraSans-Roman-74"/>
      <path d="
M34.2812 27.4844
Q23.3906 27.4844 19.1875 25
Q14.9844 22.5156 14.9844 16.5
Q14.9844 11.7188 18.1406 8.90625
Q21.2969 6.10938 26.7031 6.10938
Q34.1875 6.10938 38.7031 11.4062
Q43.2188 16.7031 43.2188 25.4844
L43.2188 27.4844
z

M52.2031 31.2031
L52.2031 0
L43.2188 0
L43.2188 8.29688
Q40.1406 3.32812 35.5469 0.953125
Q30.9531 -1.42188 24.3125 -1.42188
Q15.9219 -1.42188 10.9531 3.29688
Q6 8.01562 6 15.9219
Q6 25.1406 12.1719 29.8281
Q18.3594 34.5156 30.6094 34.5156
L43.2188 34.5156
L43.2188 35.4062
Q43.2188 41.6094 39.1406 45
Q35.0625 48.3906 27.6875 48.3906
Q23 48.3906 18.5469 47.2656
Q14.1094 46.1406 10.0156 43.8906
L10.0156 52.2031
Q14.9375 54.1094 19.5781 55.0469
Q24.2188 56 28.6094 56
Q40.4844 56 46.3438 49.8438
Q52.2031 43.7031 52.2031 31.2031" id="BitstreamVeraSans-Roman-61"/>
      <path d="
M44.2812 53.0781
L44.2812 44.5781
Q40.4844 46.5312 36.375 47.5
Q32.2812 48.4844 27.875 48.4844
Q21.1875 48.4844 17.8438 46.4375
Q14.5 44.3906 14.5 40.2812
Q14.5 37.1562 16.8906 35.375
Q19.2812 33.5938 26.5156 31.9844
L29.5938 31.2969
Q39.1562 29.25 43.1875 25.5156
Q47.2188 21.7812 47.2188 15.0938
Q47.2188 7.46875 41.1875 3.01562
Q35.1562 -1.42188 24.6094 -1.42188
Q20.2188 -1.42188 15.4531 -0.5625
Q10.6875 0.296875 5.42188 2
L5.42188 11.2812
Q10.4062 8.6875 15.2344 7.39062
Q20.0625 6.10938 24.8125 6.10938
Q31.1562 6.10938 34.5625 8.28125
Q37.9844 10.4531 37.9844 14.4062
Q37.9844 18.0625 35.5156 20.0156
Q33.0625 21.9688 24.7031 23.7812
L21.5781 24.5156
Q13.2344 26.2656 9.51562 29.9062
Q5.8125 33.5469 5.8125 39.8906
Q5.8125 47.6094 11.2812 51.7969
Q16.75 56 26.8125 56
Q31.7812 56 36.1719 55.2656
Q40.5781 54.5469 44.2812 53.0781" id="BitstreamVeraSans-Roman-73"/>
      <path d="
M48.7812 52.5938
L48.7812 44.1875
Q44.9688 46.2969 41.1406 47.3438
Q37.3125 48.3906 33.4062 48.3906
Q24.6562 48.3906 19.8125 42.8438
Q14.9844 37.3125 14.9844 27.2969
Q14.9844 17.2812 19.8125 11.7344
Q24.6562 6.20312 33.4062 6.20312
Q37.3125 6.20312 41.1406 7.25
Q44.9688 8.29688 48.7812 10.4062
L48.7812 2.09375
Q45.0156 0.34375 40.9844 -0.53125
Q36.9688 -1.42188 32.4219 -1.42188
Q20.0625 -1.42188 12.7812 6.34375
Q5.51562 14.1094 5.51562 27.2969
Q5.51562 40.6719 12.8594 48.3281
Q20.2188 56 33.0156 56
Q37.1562 56 41.1094 55.1406
Q45.0625 54.2969 48.7812 52.5938" id="BitstreamVeraSans-Roman-63"/>
     </defs>
     <g transform="translate(117.590234375 276.1109375)scale(0.1 -0.1)">
      <use xlink:href="#BitstreamVeraSans-Roman-44"/>
      <use x="77.001953125" xlink:href="#BitstreamVeraSans-Roman-69"/>
      <use x="104.78515625" xlink:href="#BitstreamVeraSans-Roman-73"/>
      <use x="156.884765625" xlink:href="#BitstreamVeraSans-Roman-74"/>
      <use x="196.09375" xlink:href="#BitstreamVeraSans-Roman-e2"/>
      <use x="257.373046875" xlink:href="#BitstreamVeraSans-Roman-6e"/>
      <use x="320.751953125" xlink:href="#BitstreamVeraSans-Roman-63"/>
      <use x="375.732421875" xlink:href="#BitstreamVeraSans-Roman-69"/>
      <use x="403.515625" xlink:href="#BitstreamVeraSans-Roman-61"/>
      <use x="464.794921875" xlink:href="#BitstreamVeraSans-Roman-20"/>
      <use x="496.58203125" xlink:href="#BitstreamVeraSans-Roman-5b"/>
      <use x="535.595703125" xlink:href="#BitstreamVeraSans-Roman-6d"/>
      <use x="633.0078125" xlink:href="#BitstreamVeraSans-Roman-5d"/>
     </g>
    </g>
   </g>
   <g id="matplotlib.axis_2">
    <g id="ytick_1">
     <g id="line2d_29">
      <path clip-path="url(#p9149830826)" d="
M48.2906 249.834
L253.23 249.834" style="fill:none;stroke:#000000;stroke-dasharray:1.000000,3.000000;stroke-dashoffset:0.0;stroke-width:0.5;"/>
     </g>
     <g id="line2d_30">
      <defs>
       <path d="
M0 0
L4 0" id="m728421d6d4" style="stroke:#000000;stroke-width:0.5;"/>
      </defs>
      <g>
       <use style="stroke:#000000;stroke-width:0.5;" x="48.290625" xlink:href="#m728421d6d4" y="249.834375"/>
      </g>
     </g>
     <g id="line2d_31">
      <defs>
       <path d="
M0 0
L-4 0" id="mcb0005524f" style="stroke:#000000;stroke-width:0.5;"/>
      </defs>
      <g>
       <use style="stroke:#000000;stroke-width:0.5;" x="253.23046875" xlink:href="#mcb0005524f" y="249.834375"/>
      </g>
     </g>
     <g id="text_9">
      <!-- −12 -->
      <defs>
       <path d="
M12.4062 8.29688
L28.5156 8.29688
L28.5156 63.9219
L10.9844 60.4062
L10.9844 69.3906
L28.4219 72.9062
L38.2812 72.9062
L38.2812 8.29688
L54.3906 8.29688
L54.3906 0
L12.4062 0
z
" id="BitstreamVeraSans-Roman-31"/>
      </defs>
      <g transform="translate(25.246875 252.59375)scale(0.1 -0.1)">
       <use xlink:href="#BitstreamVeraSans-Roman-2212"/>
       <use x="83.7890625" xlink:href="#BitstreamVeraSans-Roman-31"/>
       <use x="147.412109375" xlink:href="#BitstreamVeraSans-Roman-32"/>
      </g>
     </g>
    </g>
    <g id="ytick_2">
     <g id="line2d_32">
      <path clip-path="url(#p9149830826)" d="
M48.2906 217.687
L253.23 217.687" style="fill:none;stroke:#000000;stroke-dasharray:1.000000,3.000000;stroke-dashoffset:0.0;stroke-width:0.5;"/>
     </g>
     <g id="line2d_33">
      <g>
       <use style="stroke:#000000;stroke-width:0.5;" x="48.290625" xlink:href="#m728421d6d4" y="217.686607143"/>
      </g>
     </g>
     <g id="line2d_34">
      <g>
       <use style="stroke:#000000;stroke-width:0.5;" x="253.23046875" xlink:href="#mcb0005524f" y="217.686607143"/>
      </g>
     </g>
     <g id="text_10">
      <!-- −10 -->
      <g transform="translate(24.909375 220.445982143)scale(0.1 -0.1)">
       <use xlink:href="#BitstreamVeraSans-Roman-2212"/>
       <use x="83.7890625" xlink:href="#BitstreamVeraSans-Roman-31"/>
       <use x="147.412109375" xlink:href="#BitstreamVeraSans-Roman-30"/>
      </g>
     </g>
    </g>
    <g id="ytick_3">
     <g id="line2d_35">
      <path clip-path="url(#p9149830826)" d="
M48.2906 185.539
L253.23 185.539" style="fill:none;stroke:#000000;stroke-dasharray:1.000000,3.000000;stroke-dashoffset:0.0;stroke-width:0.5;"/>
     </g>
     <g id="line2d_36">
      <g>
       <use style="stroke:#000000;stroke-width:0.5;" x="48.290625" xlink:href="#m728421d6d4" y="185.538839286"/>
      </g>
     </g>
     <g id="line2d_37">
      <g>
       <use style="stroke:#000000;stroke-width:0.5;" x="253.23046875" xlink:href="#mcb0005524f" y="185.538839286"/>
      </g>
     </g>
     <g id="text_11">
      <!-- −8 -->
      <defs>
       <path d="
M31.7812 34.625
Q24.75 34.625 20.7188 30.8594
Q16.7031 27.0938 16.7031 20.5156
Q16.7031 13.9219 20.7188 10.1562
Q24.75 6.39062 31.7812 6.39062
Q38.8125 6.39062 42.8594 10.1719
Q46.9219 13.9688 46.9219 20.5156
Q46.9219 27.0938 42.8906 30.8594
Q38.875 34.625 31.7812 34.625
M21.9219 38.8125
Q15.5781 40.375 12.0312 44.7188
Q8.5 49.0781 8.5 55.3281
Q8.5 64.0625 14.7188 69.1406
Q20.9531 74.2188 31.7812 74.2188
Q42.6719 74.2188 48.875 69.1406
Q55.0781 64.0625 55.0781 55.3281
Q55.0781 49.0781 51.5312 44.7188
Q48 40.375 41.7031 38.8125
Q48.8281 37.1562 52.7969 32.3125
Q56.7812 27.4844 56.7812 20.5156
Q56.7812 9.90625 50.3125 4.23438
Q43.8438 -1.42188 31.7812 -1.42188
Q19.7344 -1.42188 13.25 4.23438
Q6.78125 9.90625 6.78125 20.5156
Q6.78125 27.4844 10.7812 32.3125
Q14.7969 37.1562 21.9219 38.8125
M18.3125 54.3906
Q18.3125 48.7344 21.8438 45.5625
Q25.3906 42.3906 31.7812 42.3906
Q38.1406 42.3906 41.7188 45.5625
Q45.3125 48.7344 45.3125 54.3906
Q45.3125 60.0625 41.7188 63.2344
Q38.1406 66.4062 31.7812 66.4062
Q25.3906 66.4062 21.8438 63.2344
Q18.3125 60.0625 18.3125 54.3906" id="BitstreamVeraSans-Roman-38"/>
      </defs>
      <g transform="translate(31.2921875 188.298214286)scale(0.1 -0.1)">
       <use xlink:href="#BitstreamVeraSans-Roman-2212"/>
       <use x="83.7890625" xlink:href="#BitstreamVeraSans-Roman-38"/>
      </g>
     </g>
    </g>
    <g id="ytick_4">
     <g id="line2d_38">
      <path clip-path="url(#p9149830826)" d="
M48.2906 153.391
L253.23 153.391" style="fill:none;stroke:#000000;stroke-dasharray:1.000000,3.000000;stroke-dashoffset:0.0;stroke-width:0.5;"/>
     </g>
     <g id="line2d_39">
      <g>
       <use style="stroke:#000000;stroke-width:0.5;" x="48.290625" xlink:href="#m728421d6d4" y="153.391071429"/>
      </g>
     </g>
     <g id="line2d_40">
      <g>
       <use style="stroke:#000000;stroke-width:0.5;" x="253.23046875" xlink:href="#mcb0005524f" y="153.391071429"/>
      </g>
     </g>
     <g id="text_12">
      <!-- −6 -->
      <g transform="translate(31.2375 156.150446429)scale(0.1 -0.1)">
       <use xlink:href="#BitstreamVeraSans-Roman-2212"/>
       <use x="83.7890625" xlink:href="#BitstreamVeraSans-Roman-36"/>
      </g>
     </g>
    </g>
    <g id="ytick_5">
     <g id="line2d_41">
      <path clip-path="url(#p9149830826)" d="
M48.2906 121.243
L253.23 121.243" style="fill:none;stroke:#000000;stroke-dasharray:1.000000,3.000000;stroke-dashoffset:0.0;stroke-width:0.5;"/>
     </g>
     <g id="line2d_42">
      <g>
       <use style="stroke:#000000;stroke-width:0.5;" x="48.290625" xlink:href="#m728421d6d4" y="121.243303571"/>
      </g>
     </g>
     <g id="line2d_43">
      <g>
       <use style="stroke:#000000;stroke-width:0.5;" x="253.23046875" xlink:href="#mcb0005524f" y="121.243303571"/>
      </g>
     </g>
     <g id="text_13">
      <!-- −4 -->
      <g transform="translate(31.16875 124.002678571)scale(0.1 -0.1)">
       <use xlink:href="#BitstreamVeraSans-Roman-2212"/>
       <use x="83.7890625" xlink:href="#BitstreamVeraSans-Roman-34"/>
      </g>
     </g>
    </g>
    <g id="ytick_6">
     <g id="line2d_44">
      <path clip-path="url(#p9149830826)" d="
M48.2906 89.0955
L253.23 89.0955" style="fill:none;stroke:#000000;stroke-dasharray:1.000000,3.000000;stroke-dashoffset:0.0;stroke-width:0.5;"/>
     </g>
     <g id="line2d_45">
      <g>
       <use style="stroke:#000000;stroke-width:0.5;" x="48.290625" xlink:href="#m728421d6d4" y="89.0955357143"/>
      </g>
     </g>
     <g id="line2d_46">
      <g>
       <use style="stroke:#000000;stroke-width:0.5;" x="253.23046875" xlink:href="#mcb0005524f" y="89.0955357143"/>
      </g>
     </g>
     <g id="text_14">
      <!-- −2 -->
      <g transform="translate(31.609375 91.8549107143)scale(0.1 -0.1)">
       <use xlink:href="#BitstreamVeraSans-Roman-2212"/>
       <use x="83.7890625" xlink:href="#BitstreamVeraSans-Roman-32"/>
      </g>
     </g>
    </g>
    <g id="ytick_7">
     <g id="line2d_47">
      <path clip-path="url(#p9149830826)" d="
M48.2906 56.9478
L253.23 56.9478" style="fill:none;stroke:#000000;stroke-dasharray:1.000000,3.000000;stroke-dashoffset:0.0;stroke-width:0.5;"/>
     </g>
     <g id="line2d_48">
      <g>
       <use style="stroke:#000000;stroke-width:0.5;" x="48.290625" xlink:href="#m728421d6d4" y="56.9477678571"/>
      </g>
     </g>
     <g id="line2d_49">
      <g>
       <use style="stroke:#000000;stroke-width:0.5;" x="253.23046875" xlink:href="#mcb0005524f" y="56.9477678571"/>
      </g>
     </g>
     <g id="text_15">
      <!-- 0 -->
      <g transform="translate(39.2515625 59.7071428571)scale(0.1 -0.1)">
       <use xlink:href="#BitstreamVeraSans-Roman-30"/>
      </g>
     </g>
    </g>
    <g id="ytick_8">
     <g id="line2d_50">
      <path clip-path="url(#p9149830826)" d="
M48.2906 24.8
L253.23 24.8" style="fill:none;stroke:#000000;stroke-dasharray:1.000000,3.000000;stroke-dashoffset:0.0;stroke-width:0.5;"/>
     </g>
     <g id="line2d_51">
      <g>
       <use style="stroke:#000000;stroke-width:0.5;" x="48.290625" xlink:href="#m728421d6d4" y="24.8"/>
      </g>
     </g>
     <g id="line2d_52">
      <g>
       <use style="stroke:#000000;stroke-width:0.5;" x="253.23046875" xlink:href="#mcb0005524f" y="24.8"/>
      </g>
     </g>
     <g id="text_16">
      <!-- 2 -->
      <g transform="translate(39.6625 27.559375)scale(0.1 -0.1)">
       <use xlink:href="#BitstreamVeraSans-Roman-32"/>
      </g>
     </g>
    </g>
    <g id="text_17">
     <!-- Profundidade [m] -->
     <defs>
      <path d="
M8.5 21.5781
L8.5 54.6875
L17.4844 54.6875
L17.4844 21.9219
Q17.4844 14.1562 20.5 10.2656
Q23.5312 6.39062 29.5938 6.39062
Q36.8594 6.39062 41.0781 11.0312
Q45.3125 15.6719 45.3125 23.6875
L45.3125 54.6875
L54.2969 54.6875
L54.2969 0
L45.3125 0
L45.3125 8.40625
Q42.0469 3.42188 37.7188 1
Q33.4062 -1.42188 27.6875 -1.42188
Q18.2656 -1.42188 13.375 4.4375
Q8.5 10.2969 8.5 21.5781" id="BitstreamVeraSans-Roman-75"/>
      <path d="
M30.6094 48.3906
Q23.3906 48.3906 19.1875 42.75
Q14.9844 37.1094 14.9844 27.2969
Q14.9844 17.4844 19.1562 11.8438
Q23.3438 6.20312 30.6094 6.20312
Q37.7969 6.20312 41.9844 11.8594
Q46.1875 17.5312 46.1875 27.2969
Q46.1875 37.0156 41.9844 42.7031
Q37.7969 48.3906 30.6094 48.3906
M30.6094 56
Q42.3281 56 49.0156 48.375
Q55.7188 40.7656 55.7188 27.2969
Q55.7188 13.875 49.0156 6.21875
Q42.3281 -1.42188 30.6094 -1.42188
Q18.8438 -1.42188 12.1719 6.21875
Q5.51562 13.875 5.51562 27.2969
Q5.51562 40.7656 12.1719 48.375
Q18.8438 56 30.6094 56" id="BitstreamVeraSans-Roman-6f"/>
      <path d="
M19.6719 64.7969
L19.6719 37.4062
L32.0781 37.4062
Q38.9688 37.4062 42.7188 40.9688
Q46.4844 44.5312 46.4844 51.125
Q46.4844 57.6719 42.7188 61.2344
Q38.9688 64.7969 32.0781 64.7969
z

M9.8125 72.9062
L32.0781 72.9062
Q44.3438 72.9062 50.6094 67.3594
Q56.8906 61.8125 56.8906 51.125
Q56.8906 40.3281 50.6094 34.8125
Q44.3438 29.2969 32.0781 29.2969
L19.6719 29.2969
L19.6719 0
L9.8125 0
z
" id="BitstreamVeraSans-Roman-50"/>
      <path d="
M56.2031 29.5938
L56.2031 25.2031
L14.8906 25.2031
Q15.4844 15.9219 20.4844 11.0625
Q25.4844 6.20312 34.4219 6.20312
Q39.5938 6.20312 44.4531 7.46875
Q49.3125 8.73438 54.1094 11.2812
L54.1094 2.78125
Q49.2656 0.734375 44.1875 -0.34375
Q39.1094 -1.42188 33.8906 -1.42188
Q20.7969 -1.42188 13.1562 6.1875
Q5.51562 13.8125 5.51562 26.8125
Q5.51562 40.2344 12.7656 48.1094
Q20.0156 56 32.3281 56
Q43.3594 56 49.7812 48.8906
Q56.2031 41.7969 56.2031 29.5938
M47.2188 32.2344
Q47.125 39.5938 43.0938 43.9844
Q39.0625 48.3906 32.4219 48.3906
Q24.9062 48.3906 20.3906 44.1406
Q15.875 39.8906 15.1875 32.1719
z
" id="BitstreamVeraSans-Roman-65"/>
      <path d="
M45.4062 46.3906
L45.4062 75.9844
L54.3906 75.9844
L54.3906 0
L45.4062 0
L45.4062 8.20312
Q42.5781 3.32812 38.25 0.953125
Q33.9375 -1.42188 27.875 -1.42188
Q17.9688 -1.42188 11.7344 6.48438
Q5.51562 14.4062 5.51562 27.2969
Q5.51562 40.1875 11.7344 48.0938
Q17.9688 56 27.875 56
Q33.9375 56 38.25 53.625
Q42.5781 51.2656 45.4062 46.3906
M14.7969 27.2969
Q14.7969 17.3906 18.875 11.75
Q22.9531 6.10938 30.0781 6.10938
Q37.2031 6.10938 41.2969 11.75
Q45.4062 17.3906 45.4062 27.2969
Q45.4062 37.2031 41.2969 42.8438
Q37.2031 48.4844 30.0781 48.4844
Q22.9531 48.4844 18.875 42.8438
Q14.7969 37.2031 14.7969 27.2969" id="BitstreamVeraSans-Roman-64"/>
      <path d="
M37.1094 75.9844
L37.1094 68.5
L28.5156 68.5
Q23.6875 68.5 21.7969 66.5469
Q19.9219 64.5938 19.9219 59.5156
L19.9219 54.6875
L34.7188 54.6875
L34.7188 47.7031
L19.9219 47.7031
L19.9219 0
L10.8906 0
L10.8906 47.7031
L2.29688 47.7031
L2.29688 54.6875
L10.8906 54.6875
L10.8906 58.5
Q10.8906 67.625 15.1406 71.7969
Q19.3906 75.9844 28.6094 75.9844
z
" id="BitstreamVeraSans-Roman-66"/>
      <path d="
M41.1094 46.2969
Q39.5938 47.1719 37.8125 47.5781
Q36.0312 48 33.8906 48
Q26.2656 48 22.1875 43.0469
Q18.1094 38.0938 18.1094 28.8125
L18.1094 0
L9.07812 0
L9.07812 54.6875
L18.1094 54.6875
L18.1094 46.1875
Q20.9531 51.1719 25.4844 53.5781
Q30.0312 56 36.5312 56
Q37.4531 56 38.5781 55.875
Q39.7031 55.7656 41.0625 55.5156
z
" id="BitstreamVeraSans-Roman-72"/>
     </defs>
     <g transform="translate(17.8296875 180.328125)rotate(-90.0)scale(0.1 -0.1)">
      <use xlink:href="#BitstreamVeraSans-Roman-50"/>
      <use x="58.552734375" xlink:href="#BitstreamVeraSans-Roman-72"/>
      <use x="97.416015625" xlink:href="#BitstreamVeraSans-Roman-6f"/>
      <use x="158.59765625" xlink:href="#BitstreamVeraSans-Roman-66"/>
      <use x="193.802734375" xlink:href="#BitstreamVeraSans-Roman-75"/>
      <use x="257.181640625" xlink:href="#BitstreamVeraSans-Roman-6e"/>
      <use x="320.560546875" xlink:href="#BitstreamVeraSans-Roman-64"/>
      <use x="384.037109375" xlink:href="#BitstreamVeraSans-Roman-69"/>
      <use x="411.8203125" xlink:href="#BitstreamVeraSans-Roman-64"/>
      <use x="475.296875" xlink:href="#BitstreamVeraSans-Roman-61"/>
      <use x="536.576171875" xlink:href="#BitstreamVeraSans-Roman-64"/>
      <use x="600.052734375" xlink:href="#BitstreamVeraSans-Roman-65"/>
      <use x="661.576171875" xlink:href="#BitstreamVeraSans-Roman-20"/>
      <use x="693.36328125" xlink:href="#BitstreamVeraSans-Roman-5b"/>
      <use x="732.376953125" xlink:href="#BitstreamVeraSans-Roman-6d"/>
      <use x="829.7890625" xlink:href="#BitstreamVeraSans-Roman-5d"/>
     </g>
    </g>
   </g>
   <g id="patch_3">
    <path d="
M48.2906 24.8
L253.23 24.8" style="fill:none;stroke:#000000;"/>
   </g>
   <g id="patch_4">
    <path d="
M253.23 249.834
L253.23 24.8" style="fill:none;stroke:#000000;"/>
   </g>
   <g id="patch_5">
    <path d="
M48.2906 249.834
L253.23 249.834" style="fill:none;stroke:#000000;"/>
   </g>
   <g id="patch_6">
    <path d="
M48.2906 249.834
L48.2906 24.8" style="fill:none;stroke:#000000;"/>
   </g>
   <g id="patch_7">
    <path d="
M244.06 30.9906
Q233.907 37.3615 229.08 47.5399" style="fill:none;stroke:#000000;stroke-linecap:round;"/>
    <path d="
M232.601 44.7828
L229.08 47.5399
L228.987 43.0688" style="fill:none;stroke:#000000;stroke-linecap:round;"/>
   </g>
   <g id="text_18">
    <!-- $\eta$ -->
    <defs>
     <path d="
M10.6875 -1.125
Q9.46875 -1.125 8.59375 -0.34375
Q7.71875 0.4375 7.71875 1.70312
Q7.71875 2.29688 7.8125 2.59375
L15.2812 32.4219
Q16.0156 35.2031 16.0156 37.3125
Q16.0156 41.6094 13.0938 41.6094
Q9.96875 41.6094 8.45312 37.8594
Q6.9375 34.125 5.51562 28.4219
Q5.51562 28.125 5.21875 27.9531
Q4.9375 27.7812 4.6875 27.7812
L3.51562 27.7812
Q3.17188 27.7812 2.92188 28.1406
Q2.6875 28.5156 2.6875 28.8125
Q3.76562 33.1562 4.76562 36.1719
Q5.76562 39.2031 7.89062 41.6875
Q10.0156 44.1875 13.1875 44.1875
Q16.8906 44.1875 19.7969 41.8438
Q22.7031 39.5 22.7031 35.7969
Q25.6406 39.7031 29.5938 41.9375
Q33.5469 44.1875 38.1875 44.1875
Q43.4062 44.1875 46.5469 41.375
Q49.7031 38.5781 49.7031 33.4062
Q49.7031 30.4219 49.0312 27.875
L37.4062 -18.4062
Q37.1094 -19.8281 35.9375 -20.7031
Q34.7656 -21.5781 33.2969 -21.5781
Q32.0781 -21.5781 31.2031 -20.8125
Q30.3281 -20.0625 30.3281 -18.7969
Q30.3281 -18.2188 30.4219 -18.0156
L41.8906 28.0781
Q42.9219 32.1719 42.9219 34.9062
Q42.9219 37.7031 41.75 39.6562
Q40.5781 41.6094 37.9844 41.6094
Q28.1719 41.6094 21.6875 29.5
L14.8906 2.20312
Q14.5469 0.828125 13.3438 -0.140625
Q12.1562 -1.125 10.6875 -1.125" id="Cmmi10-b4"/>
    </defs>
    <g transform="translate(247.782594456 30.3717329735)scale(0.1 -0.1)">
     <use transform="translate(0.0 0.8125)" xlink:href="#Cmmi10-b4"/>
    </g>
   </g>
   <g id="text_19">
    <!-- Ondas de águas profundas (ou ondas curtas) -->
    <defs>
     <path d="
M39.4062 66.2188
Q28.6562 66.2188 22.3281 58.2031
Q16.0156 50.2031 16.0156 36.375
Q16.0156 22.6094 22.3281 14.5938
Q28.6562 6.59375 39.4062 6.59375
Q50.1406 6.59375 56.4219 14.5938
Q62.7031 22.6094 62.7031 36.375
Q62.7031 50.2031 56.4219 58.2031
Q50.1406 66.2188 39.4062 66.2188
M39.4062 74.2188
Q54.7344 74.2188 63.9062 63.9375
Q73.0938 53.6562 73.0938 36.375
Q73.0938 19.1406 63.9062 8.85938
Q54.7344 -1.42188 39.4062 -1.42188
Q24.0312 -1.42188 14.8125 8.82812
Q5.60938 19.0938 5.60938 36.375
Q5.60938 53.6562 14.8125 63.9375
Q24.0312 74.2188 39.4062 74.2188" id="BitstreamVeraSans-Roman-4f"/>
     <path d="
M34.2812 27.4844
Q23.3906 27.4844 19.1875 25
Q14.9844 22.5156 14.9844 16.5
Q14.9844 11.7188 18.1406 8.90625
Q21.2969 6.10938 26.7031 6.10938
Q34.1875 6.10938 38.7031 11.4062
Q43.2188 16.7031 43.2188 25.4844
L43.2188 27.4844
z

M52.2031 31.2031
L52.2031 0
L43.2188 0
L43.2188 8.29688
Q40.1406 3.32812 35.5469 0.953125
Q30.9531 -1.42188 24.3125 -1.42188
Q15.9219 -1.42188 10.9531 3.29688
Q6 8.01562 6 15.9219
Q6 25.1406 12.1719 29.8281
Q18.3594 34.5156 30.6094 34.5156
L43.2188 34.5156
L43.2188 35.4062
Q43.2188 41.6094 39.1406 45
Q35.0625 48.3906 27.6875 48.3906
Q23 48.3906 18.5469 47.2656
Q14.1094 46.1406 10.0156 43.8906
L10.0156 52.2031
Q14.9375 54.1094 19.5781 55.0469
Q24.2188 56 28.6094 56
Q40.4844 56 46.3438 49.8438
Q52.2031 43.7031 52.2031 31.2031
M35.7812 79.9844
L45.5 79.9844
L29.5938 61.625
L22.1094 61.625
z
" id="BitstreamVeraSans-Roman-e1"/>
     <path d="
M8.01562 75.875
L15.8281 75.875
Q23.1406 64.3594 26.7812 53.3125
Q30.4219 42.2812 30.4219 31.3906
Q30.4219 20.4531 26.7812 9.375
Q23.1406 -1.70312 15.8281 -13.1875
L8.01562 -13.1875
Q14.5 -2 17.7031 9.0625
Q20.9062 20.125 20.9062 31.3906
Q20.9062 42.6719 17.7031 53.6562
Q14.5 64.6562 8.01562 75.875" id="BitstreamVeraSans-Roman-29"/>
     <path d="
M31 75.875
Q24.4688 64.6562 21.2812 53.6562
Q18.1094 42.6719 18.1094 31.3906
Q18.1094 20.125 21.3125 9.0625
Q24.5156 -2 31 -13.1875
L23.1875 -13.1875
Q15.875 -1.70312 12.2344 9.375
Q8.59375 20.4531 8.59375 31.3906
Q8.59375 42.2812 12.2031 53.3125
Q15.8281 64.3594 23.1875 75.875
z
" id="BitstreamVeraSans-Roman-28"/>
     <path d="
M45.4062 27.9844
Q45.4062 37.75 41.375 43.1094
Q37.3594 48.4844 30.0781 48.4844
Q22.8594 48.4844 18.8281 43.1094
Q14.7969 37.75 14.7969 27.9844
Q14.7969 18.2656 18.8281 12.8906
Q22.8594 7.51562 30.0781 7.51562
Q37.3594 7.51562 41.375 12.8906
Q45.4062 18.2656 45.4062 27.9844
M54.3906 6.78125
Q54.3906 -7.17188 48.1875 -13.9844
Q42 -20.7969 29.2031 -20.7969
Q24.4688 -20.7969 20.2656 -20.0938
Q16.0625 -19.3906 12.1094 -17.9219
L12.1094 -9.1875
Q16.0625 -11.3281 19.9219 -12.3438
Q23.7812 -13.375 27.7812 -13.375
Q36.625 -13.375 41.0156 -8.76562
Q45.4062 -4.15625 45.4062 5.17188
L45.4062 9.625
Q42.625 4.78125 38.2812 2.39062
Q33.9375 0 27.875 0
Q17.8281 0 11.6719 7.65625
Q5.51562 15.3281 5.51562 27.9844
Q5.51562 40.6719 11.6719 48.3281
Q17.8281 56 27.875 56
Q33.9375 56 38.2812 53.6094
Q42.625 51.2188 45.4062 46.3906
L45.4062 54.6875
L54.3906 54.6875
z
" id="BitstreamVeraSans-Roman-67"/>
     <path d="
M18.1094 8.20312
L18.1094 -20.7969
L9.07812 -20.7969
L9.07812 54.6875
L18.1094 54.6875
L18.1094 46.3906
Q20.9531 51.2656 25.2656 53.625
Q29.5938 56 35.5938 56
Q45.5625 56 51.7812 48.0938
Q58.0156 40.1875 58.0156 27.2969
Q58.0156 14.4062 51.7812 6.48438
Q45.5625 -1.42188 35.5938 -1.42188
Q29.5938 -1.42188 25.2656 0.953125
Q20.9531 3.32812 18.1094 8.20312
M48.6875 27.2969
Q48.6875 37.2031 44.6094 42.8438
Q40.5312 48.4844 33.4062 48.4844
Q26.2656 48.4844 22.1875 42.8438
Q18.1094 37.2031 18.1094 27.2969
Q18.1094 17.3906 22.1875 11.75
Q26.2656 6.10938 33.4062 6.10938
Q40.5312 6.10938 44.6094 11.75
Q48.6875 17.3906 48.6875 27.2969" id="BitstreamVeraSans-Roman-70"/>
    </defs>
    <g transform="translate(16.001484375 19.8)scale(0.12 -0.12)">
     <use xlink:href="#BitstreamVeraSans-Roman-4f"/>
     <use x="78.7109375" xlink:href="#BitstreamVeraSans-Roman-6e"/>
     <use x="142.08984375" xlink:href="#BitstreamVeraSans-Roman-64"/>
     <use x="205.56640625" xlink:href="#BitstreamVeraSans-Roman-61"/>
     <use x="266.845703125" xlink:href="#BitstreamVeraSans-Roman-73"/>
     <use x="318.9453125" xlink:href="#BitstreamVeraSans-Roman-20"/>
     <use x="350.732421875" xlink:href="#BitstreamVeraSans-Roman-64"/>
     <use x="414.208984375" xlink:href="#BitstreamVeraSans-Roman-65"/>
     <use x="475.732421875" xlink:href="#BitstreamVeraSans-Roman-20"/>
     <use x="507.51953125" xlink:href="#BitstreamVeraSans-Roman-e1"/>
     <use x="568.798828125" xlink:href="#BitstreamVeraSans-Roman-67"/>
     <use x="632.275390625" xlink:href="#BitstreamVeraSans-Roman-75"/>
     <use x="695.654296875" xlink:href="#BitstreamVeraSans-Roman-61"/>
     <use x="756.93359375" xlink:href="#BitstreamVeraSans-Roman-73"/>
     <use x="809.033203125" xlink:href="#BitstreamVeraSans-Roman-20"/>
     <use x="840.8203125" xlink:href="#BitstreamVeraSans-Roman-70"/>
     <use x="904.296875" xlink:href="#BitstreamVeraSans-Roman-72"/>
     <use x="943.16015625" xlink:href="#BitstreamVeraSans-Roman-6f"/>
     <use x="1004.34179688" xlink:href="#BitstreamVeraSans-Roman-66"/>
     <use x="1039.546875" xlink:href="#BitstreamVeraSans-Roman-75"/>
     <use x="1102.92578125" xlink:href="#BitstreamVeraSans-Roman-6e"/>
     <use x="1166.3046875" xlink:href="#BitstreamVeraSans-Roman-64"/>
     <use x="1229.78125" xlink:href="#BitstreamVeraSans-Roman-61"/>
     <use x="1291.06054688" xlink:href="#BitstreamVeraSans-Roman-73"/>
     <use x="1343.16015625" xlink:href="#BitstreamVeraSans-Roman-20"/>
     <use x="1374.94726562" xlink:href="#BitstreamVeraSans-Roman-28"/>
     <use x="1413.9609375" xlink:href="#BitstreamVeraSans-Roman-6f"/>
     <use x="1475.14257812" xlink:href="#BitstreamVeraSans-Roman-75"/>
     <use x="1538.52148438" xlink:href="#BitstreamVeraSans-Roman-20"/>
     <use x="1570.30859375" xlink:href="#BitstreamVeraSans-Roman-6f"/>
     <use x="1631.49023438" xlink:href="#BitstreamVeraSans-Roman-6e"/>
     <use x="1694.86914062" xlink:href="#BitstreamVeraSans-Roman-64"/>
     <use x="1758.34570312" xlink:href="#BitstreamVeraSans-Roman-61"/>
     <use x="1819.625" xlink:href="#BitstreamVeraSans-Roman-73"/>
     <use x="1871.72460938" xlink:href="#BitstreamVeraSans-Roman-20"/>
     <use x="1903.51171875" xlink:href="#BitstreamVeraSans-Roman-63"/>
     <use x="1958.4921875" xlink:href="#BitstreamVeraSans-Roman-75"/>
     <use x="2021.87109375" xlink:href="#BitstreamVeraSans-Roman-72"/>
     <use x="2062.984375" xlink:href="#BitstreamVeraSans-Roman-74"/>
     <use x="2102.19335938" xlink:href="#BitstreamVeraSans-Roman-61"/>
     <use x="2163.47265625" xlink:href="#BitstreamVeraSans-Roman-73"/>
     <use x="2215.57226562" xlink:href="#BitstreamVeraSans-Roman-29"/>
    </g>
   </g>
  </g>
 </g>
 <defs>
  <clipPath id="p9149830826">
   <rect height="225.034375" width="204.93984375" x="48.290625" y="24.8"/>
  </clipPath>
 </defs>
</svg>
