<?xml version="1.0" encoding="utf-8" standalone="no"?>
<!DOCTYPE svg PUBLIC "-//W3C//DTD SVG 1.1//EN"
  "http://www.w3.org/Graphics/SVG/1.1/DTD/svg11.dtd">
<!-- Created with matplotlib (http://matplotlib.org/) -->
<svg height="288pt" version="1.1" viewBox="0 0 576 288" width="576pt" xmlns="http://www.w3.org/2000/svg" xmlns:xlink="http://www.w3.org/1999/xlink">
 <defs>
  <style type="text/css">
*{stroke-linecap:butt;stroke-linejoin:round;}
  </style>
 </defs>
 <g id="figure_1">
  <g id="patch_1">
   <path d="
M0 288
L576 288
L576 0
L0 0
z
" style="fill:#ffffff;"/>
  </g>
  <g id="axes_1">
   <g id="line2d_1">
    <path clip-path="url(#pd17d8af51d)" d="
M74.2099 214.8
L76.1988 214.681
L78.1877 214.325
L80.1766 213.732
L82.1655 212.905
L84.1545 211.846
L86.3644 210.402
L88.5743 208.681
L90.7842 206.691
L93.215 204.2
L95.8669 201.136
L98.5188 197.726
L101.392 193.666
L104.486 188.896
L107.8 183.371
L111.557 176.651
L115.756 168.656
L120.618 158.903
L127.469 144.605
L139.402 119.643
L144.485 109.57
L148.684 101.726
L152.44 95.17
L155.755 89.8115
L158.849 85.2144
L161.722 81.3271
L164.374 78.0879
L167.026 75.2028
L169.457 72.8832
L171.667 71.0539
L173.876 69.4983
L176.086 68.2226
L178.075 67.3178
L180.064 66.6467
L182.053 66.2114
L184.042 66.0132
L186.031 66.0529
L188.02 66.3302
L190.009 66.8443
L191.998 67.5936
L193.987 68.5756
L196.196 69.9359
L198.406 71.5743
L200.616 73.4842
L203.047 75.8899
L205.478 78.6037
L208.13 81.9001
L211.003 85.8458
L214.097 90.501
L217.411 95.9159
L220.947 102.126
L224.925 109.57
L229.566 118.747
L235.533 131.075
L251.886 165.162
L256.527 174.177
L260.505 181.442
L264.04 187.463
L267.355 192.677
L270.449 197.126
L273.322 200.864
L275.974 203.958
L278.405 206.477
L280.836 208.681
L283.046 210.402
L285.255 211.846
L287.465 213.008
L289.454 213.809
L291.443 214.376
L293.432 214.706
L295.421 214.799
L297.41 214.653
L299.399 214.27
L301.388 213.652
L303.377 212.799
L305.366 211.714
L307.575 210.242
L309.785 208.494
L312.216 206.261
L314.647 203.714
L317.299 200.591
L319.951 197.126
L322.824 193.009
L325.918 188.184
L329.232 182.605
L332.989 175.832
L337.188 167.788
L342.271 157.541
L349.564 142.27
L360.171 120.092
L365.254 109.997
L369.453 102.126
L373.21 95.542
L376.524 90.1552
L379.618 85.529
L382.491 81.6125
L385.143 78.3446
L387.795 75.4293
L390.226 73.0809
L392.657 71.0539
L394.867 69.4983
L397.076 68.2226
L399.065 67.3178
L401.054 66.6467
L403.043 66.2114
L405.032 66.0132
L407.021 66.0529
L409.01 66.3302
L410.999 66.8443
L412.988 67.5936
L414.977 68.5756
L417.187 69.9359
L419.396 71.5743
L421.606 73.4842
L424.037 75.8899
L426.468 78.6037
L429.12 81.9001
L431.993 85.8458
L435.087 90.501
L438.402 95.9159
L441.937 102.126
L445.915 109.57
L450.556 118.747
L456.523 131.075
L472.876 165.162
L477.517 174.177
L481.495 181.442
L485.03 187.463
L488.345 192.677
L491.439 197.126
L494.312 200.864
L496.964 203.958
L499.395 206.477
L501.826 208.681
L504.036 210.402
L506.246 211.846
L508.455 213.008
L510.444 213.809
L512.433 214.376
L514.422 214.706
L515.969 214.799
L515.969 214.799" style="fill:none;stroke:#006633;stroke-linecap:square;stroke-width:2;"/>
   </g>
   <g id="matplotlib.axis_1"/>
   <g id="matplotlib.axis_2"/>
   <g id="patch_2">
    <path d="
M76.2095 140.4
Q295.201 140.4 513.075 140.4" style="fill:none;stroke:#000000;stroke-linecap:round;"/>
    <path d="
M509.075 138.4
L513.075 140.4
L509.075 142.4" style="fill:none;stroke:#000000;stroke-linecap:round;"/>
   </g>
   <g id="text_1">
    <!-- Espaço -->
    <defs>
     <path d="
M48.7812 52.5938
L48.7812 44.1875
Q44.9688 46.2969 41.1406 47.3438
Q37.3125 48.3906 33.4062 48.3906
Q24.6562 48.3906 19.8125 42.8438
Q14.9844 37.3125 14.9844 27.2969
Q14.9844 17.2812 19.8125 11.7344
Q24.6562 6.20312 33.4062 6.20312
Q37.3125 6.20312 41.1406 7.25
Q44.9688 8.29688 48.7812 10.4062
L48.7812 2.09375
Q45.0156 0.34375 40.9844 -0.53125
Q36.9688 -1.42188 32.4219 -1.42188
Q20.0625 -1.42188 12.7812 6.34375
Q5.51562 14.1094 5.51562 27.2969
Q5.51562 40.6719 12.8594 48.3281
Q20.2188 56 33.0156 56
Q37.1562 56 41.1094 55.1406
Q45.0625 54.2969 48.7812 52.5938
M36.1094 0
Q38.7812 -3.03125 40.0938 -5.59375
Q41.4219 -8.15625 41.4219 -10.5
Q41.4219 -14.8438 38.4844 -17.0625
Q35.5625 -19.2812 29.7969 -19.2812
Q27.5625 -19.2812 25.4375 -18.9844
Q23.3125 -18.7031 21.2031 -18.1094
L21.2031 -11.7188
Q22.875 -12.5469 24.6719 -12.9062
Q26.4844 -13.2812 28.7812 -13.2812
Q31.6562 -13.2812 33.125 -12.1094
Q34.5938 -10.9375 34.5938 -8.6875
Q34.5938 -7.23438 33.5312 -5.10938
Q32.4844 -2.98438 30.2969 0
z
" id="BitstreamVeraSans-Roman-e7"/>
     <path d="
M30.6094 48.3906
Q23.3906 48.3906 19.1875 42.75
Q14.9844 37.1094 14.9844 27.2969
Q14.9844 17.4844 19.1562 11.8438
Q23.3438 6.20312 30.6094 6.20312
Q37.7969 6.20312 41.9844 11.8594
Q46.1875 17.5312 46.1875 27.2969
Q46.1875 37.0156 41.9844 42.7031
Q37.7969 48.3906 30.6094 48.3906
M30.6094 56
Q42.3281 56 49.0156 48.375
Q55.7188 40.7656 55.7188 27.2969
Q55.7188 13.875 49.0156 6.21875
Q42.3281 -1.42188 30.6094 -1.42188
Q18.8438 -1.42188 12.1719 6.21875
Q5.51562 13.875 5.51562 27.2969
Q5.51562 40.7656 12.1719 48.375
Q18.8438 56 30.6094 56" id="BitstreamVeraSans-Roman-6f"/>
     <path d="
M9.8125 72.9062
L55.9062 72.9062
L55.9062 64.5938
L19.6719 64.5938
L19.6719 43.0156
L54.3906 43.0156
L54.3906 34.7188
L19.6719 34.7188
L19.6719 8.29688
L56.7812 8.29688
L56.7812 0
L9.8125 0
z
" id="BitstreamVeraSans-Roman-45"/>
     <path d="
M34.2812 27.4844
Q23.3906 27.4844 19.1875 25
Q14.9844 22.5156 14.9844 16.5
Q14.9844 11.7188 18.1406 8.90625
Q21.2969 6.10938 26.7031 6.10938
Q34.1875 6.10938 38.7031 11.4062
Q43.2188 16.7031 43.2188 25.4844
L43.2188 27.4844
z

M52.2031 31.2031
L52.2031 0
L43.2188 0
L43.2188 8.29688
Q40.1406 3.32812 35.5469 0.953125
Q30.9531 -1.42188 24.3125 -1.42188
Q15.9219 -1.42188 10.9531 3.29688
Q6 8.01562 6 15.9219
Q6 25.1406 12.1719 29.8281
Q18.3594 34.5156 30.6094 34.5156
L43.2188 34.5156
L43.2188 35.4062
Q43.2188 41.6094 39.1406 45
Q35.0625 48.3906 27.6875 48.3906
Q23 48.3906 18.5469 47.2656
Q14.1094 46.1406 10.0156 43.8906
L10.0156 52.2031
Q14.9375 54.1094 19.5781 55.0469
Q24.2188 56 28.6094 56
Q40.4844 56 46.3438 49.8438
Q52.2031 43.7031 52.2031 31.2031" id="BitstreamVeraSans-Roman-61"/>
     <path d="
M44.2812 53.0781
L44.2812 44.5781
Q40.4844 46.5312 36.375 47.5
Q32.2812 48.4844 27.875 48.4844
Q21.1875 48.4844 17.8438 46.4375
Q14.5 44.3906 14.5 40.2812
Q14.5 37.1562 16.8906 35.375
Q19.2812 33.5938 26.5156 31.9844
L29.5938 31.2969
Q39.1562 29.25 43.1875 25.5156
Q47.2188 21.7812 47.2188 15.0938
Q47.2188 7.46875 41.1875 3.01562
Q35.1562 -1.42188 24.6094 -1.42188
Q20.2188 -1.42188 15.4531 -0.5625
Q10.6875 0.296875 5.42188 2
L5.42188 11.2812
Q10.4062 8.6875 15.2344 7.39062
Q20.0625 6.10938 24.8125 6.10938
Q31.1562 6.10938 34.5625 8.28125
Q37.9844 10.4531 37.9844 14.4062
Q37.9844 18.0625 35.5156 20.0156
Q33.0625 21.9688 24.7031 23.7812
L21.5781 24.5156
Q13.2344 26.2656 9.51562 29.9062
Q5.8125 33.5469 5.8125 39.8906
Q5.8125 47.6094 11.2812 51.7969
Q16.75 56 26.8125 56
Q31.7812 56 36.1719 55.2656
Q40.5781 54.5469 44.2812 53.0781" id="BitstreamVeraSans-Roman-73"/>
     <path d="
M18.1094 8.20312
L18.1094 -20.7969
L9.07812 -20.7969
L9.07812 54.6875
L18.1094 54.6875
L18.1094 46.3906
Q20.9531 51.2656 25.2656 53.625
Q29.5938 56 35.5938 56
Q45.5625 56 51.7812 48.0938
Q58.0156 40.1875 58.0156 27.2969
Q58.0156 14.4062 51.7812 6.48438
Q45.5625 -1.42188 35.5938 -1.42188
Q29.5938 -1.42188 25.2656 0.953125
Q20.9531 3.32812 18.1094 8.20312
M48.6875 27.2969
Q48.6875 37.2031 44.6094 42.8438
Q40.5312 48.4844 33.4062 48.4844
Q26.2656 48.4844 22.1875 42.8438
Q18.1094 37.2031 18.1094 27.2969
Q18.1094 17.3906 22.1875 11.75
Q26.2656 6.10938 33.4062 6.10938
Q40.5312 6.10938 44.6094 11.75
Q48.6875 17.3906 48.6875 27.2969" id="BitstreamVeraSans-Roman-70"/>
    </defs>
    <g style="fill:#0000ff;" transform="translate(482.09634901 136.4603125)scale(0.1 -0.1)">
     <use xlink:href="#BitstreamVeraSans-Roman-45"/>
     <use x="63.18359375" xlink:href="#BitstreamVeraSans-Roman-73"/>
     <use x="115.283203125" xlink:href="#BitstreamVeraSans-Roman-70"/>
     <use x="178.759765625" xlink:href="#BitstreamVeraSans-Roman-61"/>
     <use x="240.0390625" xlink:href="#BitstreamVeraSans-Roman-e7"/>
     <use x="295.01953125" xlink:href="#BitstreamVeraSans-Roman-6f"/>
    </g>
   </g>
   <g id="text_2">
    <!-- Tempo -->
    <defs>
     <path d="
M56.2031 29.5938
L56.2031 25.2031
L14.8906 25.2031
Q15.4844 15.9219 20.4844 11.0625
Q25.4844 6.20312 34.4219 6.20312
Q39.5938 6.20312 44.4531 7.46875
Q49.3125 8.73438 54.1094 11.2812
L54.1094 2.78125
Q49.2656 0.734375 44.1875 -0.34375
Q39.1094 -1.42188 33.8906 -1.42188
Q20.7969 -1.42188 13.1562 6.1875
Q5.51562 13.8125 5.51562 26.8125
Q5.51562 40.2344 12.7656 48.1094
Q20.0156 56 32.3281 56
Q43.3594 56 49.7812 48.8906
Q56.2031 41.7969 56.2031 29.5938
M47.2188 32.2344
Q47.125 39.5938 43.0938 43.9844
Q39.0625 48.3906 32.4219 48.3906
Q24.9062 48.3906 20.3906 44.1406
Q15.875 39.8906 15.1875 32.1719
z
" id="BitstreamVeraSans-Roman-65"/>
     <path d="
M52 44.1875
Q55.375 50.25 60.0625 53.125
Q64.75 56 71.0938 56
Q79.6406 56 84.2812 50.0156
Q88.9219 44.0469 88.9219 33.0156
L88.9219 0
L79.8906 0
L79.8906 32.7188
Q79.8906 40.5781 77.0938 44.375
Q74.3125 48.1875 68.6094 48.1875
Q61.625 48.1875 57.5625 43.5469
Q53.5156 38.9219 53.5156 30.9062
L53.5156 0
L44.4844 0
L44.4844 32.7188
Q44.4844 40.625 41.7031 44.4062
Q38.9219 48.1875 33.1094 48.1875
Q26.2188 48.1875 22.1562 43.5312
Q18.1094 38.875 18.1094 30.9062
L18.1094 0
L9.07812 0
L9.07812 54.6875
L18.1094 54.6875
L18.1094 46.1875
Q21.1875 51.2188 25.4844 53.6094
Q29.7812 56 35.6875 56
Q41.6562 56 45.8281 52.9688
Q50 49.9531 52 44.1875" id="BitstreamVeraSans-Roman-6d"/>
     <path d="
M-0.296875 72.9062
L61.375 72.9062
L61.375 64.5938
L35.5 64.5938
L35.5 0
L25.5938 0
L25.5938 64.5938
L-0.296875 64.5938
z
" id="BitstreamVeraSans-Roman-54"/>
    </defs>
    <g style="fill:#ff0000;" transform="translate(483.93853651 149.8584375)scale(0.1 -0.1)">
     <use xlink:href="#BitstreamVeraSans-Roman-54"/>
     <use x="44.083984375" xlink:href="#BitstreamVeraSans-Roman-65"/>
     <use x="105.607421875" xlink:href="#BitstreamVeraSans-Roman-6d"/>
     <use x="203.01953125" xlink:href="#BitstreamVeraSans-Roman-70"/>
     <use x="266.49609375" xlink:href="#BitstreamVeraSans-Roman-6f"/>
    </g>
   </g>
   <g id="patch_3">
    <path d="
M184.705 137.279
Q184.705 103.2 184.705 69.1197" style="fill:none;stroke:#000000;stroke-linecap:round;"/>
    <path d="
M186.705 133.279
L184.705 137.279
L182.705 133.279" style="fill:none;stroke:#000000;stroke-linecap:round;"/>
    <path d="
M182.705 73.1197
L184.705 69.1197
L186.705 73.1197" style="fill:none;stroke:#000000;stroke-linecap:round;"/>
   </g>
   <g id="text_3">
    <!-- Amplitude -->
    <defs>
     <path d="
M9.42188 75.9844
L18.4062 75.9844
L18.4062 0
L9.42188 0
z
" id="BitstreamVeraSans-Roman-6c"/>
     <path d="
M9.42188 54.6875
L18.4062 54.6875
L18.4062 0
L9.42188 0
z

M9.42188 75.9844
L18.4062 75.9844
L18.4062 64.5938
L9.42188 64.5938
z
" id="BitstreamVeraSans-Roman-69"/>
     <path d="
M34.1875 63.1875
L20.7969 26.9062
L47.6094 26.9062
z

M28.6094 72.9062
L39.7969 72.9062
L67.5781 0
L57.3281 0
L50.6875 18.7031
L17.8281 18.7031
L11.1875 0
L0.78125 0
z
" id="BitstreamVeraSans-Roman-41"/>
     <path d="
M45.4062 46.3906
L45.4062 75.9844
L54.3906 75.9844
L54.3906 0
L45.4062 0
L45.4062 8.20312
Q42.5781 3.32812 38.25 0.953125
Q33.9375 -1.42188 27.875 -1.42188
Q17.9688 -1.42188 11.7344 6.48438
Q5.51562 14.4062 5.51562 27.2969
Q5.51562 40.1875 11.7344 48.0938
Q17.9688 56 27.875 56
Q33.9375 56 38.25 53.625
Q42.5781 51.2656 45.4062 46.3906
M14.7969 27.2969
Q14.7969 17.3906 18.875 11.75
Q22.9531 6.10938 30.0781 6.10938
Q37.2031 6.10938 41.2969 11.75
Q45.4062 17.3906 45.4062 27.2969
Q45.4062 37.2031 41.2969 42.8438
Q37.2031 48.4844 30.0781 48.4844
Q22.9531 48.4844 18.875 42.8438
Q14.7969 37.2031 14.7969 27.2969" id="BitstreamVeraSans-Roman-64"/>
     <path d="
M18.3125 70.2188
L18.3125 54.6875
L36.8125 54.6875
L36.8125 47.7031
L18.3125 47.7031
L18.3125 18.0156
Q18.3125 11.3281 20.1406 9.42188
Q21.9688 7.51562 27.5938 7.51562
L36.8125 7.51562
L36.8125 0
L27.5938 0
Q17.1875 0 13.2344 3.875
Q9.28125 7.76562 9.28125 18.0156
L9.28125 47.7031
L2.6875 47.7031
L2.6875 54.6875
L9.28125 54.6875
L9.28125 70.2188
z
" id="BitstreamVeraSans-Roman-74"/>
     <path d="
M8.5 21.5781
L8.5 54.6875
L17.4844 54.6875
L17.4844 21.9219
Q17.4844 14.1562 20.5 10.2656
Q23.5312 6.39062 29.5938 6.39062
Q36.8594 6.39062 41.0781 11.0312
Q45.3125 15.6719 45.3125 23.6875
L45.3125 54.6875
L54.2969 54.6875
L54.2969 0
L45.3125 0
L45.3125 8.40625
Q42.0469 3.42188 37.7188 1
Q33.4062 -1.42188 27.6875 -1.42188
Q18.2656 -1.42188 13.375 4.4375
Q8.5 10.2969 8.5 21.5781" id="BitstreamVeraSans-Roman-75"/>
    </defs>
    <g transform="translate(180.415362005 128.5171875)rotate(-90.0)scale(0.1 -0.1)">
     <use xlink:href="#BitstreamVeraSans-Roman-41"/>
     <use x="68.408203125" xlink:href="#BitstreamVeraSans-Roman-6d"/>
     <use x="165.8203125" xlink:href="#BitstreamVeraSans-Roman-70"/>
     <use x="229.296875" xlink:href="#BitstreamVeraSans-Roman-6c"/>
     <use x="257.080078125" xlink:href="#BitstreamVeraSans-Roman-69"/>
     <use x="284.86328125" xlink:href="#BitstreamVeraSans-Roman-74"/>
     <use x="324.072265625" xlink:href="#BitstreamVeraSans-Roman-75"/>
     <use x="387.451171875" xlink:href="#BitstreamVeraSans-Roman-64"/>
     <use x="450.927734375" xlink:href="#BitstreamVeraSans-Roman-65"/>
    </g>
   </g>
   <g id="patch_4">
    <path d="
M405.695 211.679
Q405.695 140.4 405.695 69.1205" style="fill:none;stroke:#000000;stroke-linecap:round;"/>
    <path d="
M407.695 207.679
L405.695 211.679
L403.695 207.679" style="fill:none;stroke:#000000;stroke-linecap:round;"/>
    <path d="
M403.695 73.1205
L405.695 69.1205
L407.695 73.1205" style="fill:none;stroke:#000000;stroke-linecap:round;"/>
   </g>
   <g id="text_4">
    <!-- Altura -->
    <defs>
     <path d="
M41.1094 46.2969
Q39.5938 47.1719 37.8125 47.5781
Q36.0312 48 33.8906 48
Q26.2656 48 22.1875 43.0469
Q18.1094 38.0938 18.1094 28.8125
L18.1094 0
L9.07812 0
L9.07812 54.6875
L18.1094 54.6875
L18.1094 46.1875
Q20.9531 51.1719 25.4844 53.5781
Q30.0312 56 36.5312 56
Q37.4531 56 38.5781 55.875
Q39.7031 55.7656 41.0625 55.5156
z
" id="BitstreamVeraSans-Roman-72"/>
    </defs>
    <g transform="translate(401.405461015 136.68)rotate(-90.0)scale(0.1 -0.1)">
     <use xlink:href="#BitstreamVeraSans-Roman-41"/>
     <use x="68.408203125" xlink:href="#BitstreamVeraSans-Roman-6c"/>
     <use x="96.19140625" xlink:href="#BitstreamVeraSans-Roman-74"/>
     <use x="135.400390625" xlink:href="#BitstreamVeraSans-Roman-75"/>
     <use x="198.779296875" xlink:href="#BitstreamVeraSans-Roman-72"/>
     <use x="239.892578125" xlink:href="#BitstreamVeraSans-Roman-61"/>
    </g>
   </g>
   <g id="patch_5">
    <path d="
M187.288 213.061
Q295.2 140.4 403.111 67.7399" style="fill:none;stroke:#000000;stroke-linecap:round;"/>
    <path d="
M191.723 212.486
L187.288 213.061
L189.489 209.168" style="fill:none;stroke:#000000;stroke-linecap:round;"/>
    <path d="
M398.676 68.315
L403.111 67.7399
L400.91 71.633" style="fill:none;stroke:#000000;stroke-linecap:round;"/>
   </g>
   <g id="text_5">
    <!-- Inclinação -->
    <defs>
     <path d="
M54.8906 33.0156
L54.8906 0
L45.9062 0
L45.9062 32.7188
Q45.9062 40.4844 42.875 44.3281
Q39.8438 48.1875 33.7969 48.1875
Q26.5156 48.1875 22.3125 43.5469
Q18.1094 38.9219 18.1094 30.9062
L18.1094 0
L9.07812 0
L9.07812 54.6875
L18.1094 54.6875
L18.1094 46.1875
Q21.3438 51.125 25.7031 53.5625
Q30.0781 56 35.7969 56
Q45.2188 56 50.0469 50.1719
Q54.8906 44.3438 54.8906 33.0156" id="BitstreamVeraSans-Roman-6e"/>
     <path d="
M34.2812 27.4844
Q23.3906 27.4844 19.1875 25
Q14.9844 22.5156 14.9844 16.5
Q14.9844 11.7188 18.1406 8.90625
Q21.2969 6.10938 26.7031 6.10938
Q34.1875 6.10938 38.7031 11.4062
Q43.2188 16.7031 43.2188 25.4844
L43.2188 27.4844
z

M52.2031 31.2031
L52.2031 0
L43.2188 0
L43.2188 8.29688
Q40.1406 3.32812 35.5469 0.953125
Q30.9531 -1.42188 24.3125 -1.42188
Q15.9219 -1.42188 10.9531 3.29688
Q6 8.01562 6 15.9219
Q6 25.1406 12.1719 29.8281
Q18.3594 34.5156 30.6094 34.5156
L43.2188 34.5156
L43.2188 35.4062
Q43.2188 41.6094 39.1406 45
Q35.0625 48.3906 27.6875 48.3906
Q23 48.3906 18.5469 47.2656
Q14.1094 46.1406 10.0156 43.8906
L10.0156 52.2031
Q14.9375 54.1094 19.5781 55.0469
Q24.2188 56 28.6094 56
Q40.4844 56 46.3438 49.8438
Q52.2031 43.7031 52.2031 31.2031
M28.8125 66.8906
L26.0156 69.5781
Q24.9531 70.5625 24.1406 71.0156
Q23.3438 71.4844 22.7031 71.4844
Q20.8438 71.4844 19.9688 69.7031
Q19.0938 67.9219 18.9844 63.9219
L12.8906 63.9219
Q12.9844 70.5156 15.4688 74.0938
Q17.9688 77.6875 22.4062 77.6875
Q24.2656 77.6875 25.8281 77
Q27.3906 76.3125 29.2031 74.7031
L31.9844 72.0156
Q33.0469 71.0469 33.8594 70.5781
Q34.6719 70.125 35.2969 70.125
Q37.1562 70.125 38.0312 71.9062
Q38.9062 73.6875 39.0156 77.6875
L45.1094 77.6875
Q45.0156 71.0938 42.5156 67.5
Q40.0312 63.9219 35.5938 63.9219
Q33.7344 63.9219 32.1719 64.5938
Q30.6094 65.2812 28.8125 66.8906" id="BitstreamVeraSans-Roman-e3"/>
     <path d="
M48.7812 52.5938
L48.7812 44.1875
Q44.9688 46.2969 41.1406 47.3438
Q37.3125 48.3906 33.4062 48.3906
Q24.6562 48.3906 19.8125 42.8438
Q14.9844 37.3125 14.9844 27.2969
Q14.9844 17.2812 19.8125 11.7344
Q24.6562 6.20312 33.4062 6.20312
Q37.3125 6.20312 41.1406 7.25
Q44.9688 8.29688 48.7812 10.4062
L48.7812 2.09375
Q45.0156 0.34375 40.9844 -0.53125
Q36.9688 -1.42188 32.4219 -1.42188
Q20.0625 -1.42188 12.7812 6.34375
Q5.51562 14.1094 5.51562 27.2969
Q5.51562 40.6719 12.8594 48.3281
Q20.2188 56 33.0156 56
Q37.1562 56 41.1094 55.1406
Q45.0625 54.2969 48.7812 52.5938" id="BitstreamVeraSans-Roman-63"/>
     <path d="
M9.8125 72.9062
L19.6719 72.9062
L19.6719 0
L9.8125 0
z
" id="BitstreamVeraSans-Roman-49"/>
    </defs>
    <g transform="translate(279.824846927 138.929438866)rotate(-45.0)scale(0.1 -0.1)">
     <use xlink:href="#BitstreamVeraSans-Roman-49"/>
     <use x="29.4921875" xlink:href="#BitstreamVeraSans-Roman-6e"/>
     <use x="92.87109375" xlink:href="#BitstreamVeraSans-Roman-63"/>
     <use x="147.8515625" xlink:href="#BitstreamVeraSans-Roman-6c"/>
     <use x="175.634765625" xlink:href="#BitstreamVeraSans-Roman-69"/>
     <use x="203.41796875" xlink:href="#BitstreamVeraSans-Roman-6e"/>
     <use x="266.796875" xlink:href="#BitstreamVeraSans-Roman-61"/>
     <use x="328.076171875" xlink:href="#BitstreamVeraSans-Roman-e7"/>
     <use x="383.056640625" xlink:href="#BitstreamVeraSans-Roman-e3"/>
     <use x="444.3359375" xlink:href="#BitstreamVeraSans-Roman-6f"/>
    </g>
   </g>
   <g id="patch_6">
    <path d="
M187.823 47.4
Q295.199 47.4 402.575 47.4" style="fill:none;stroke:#000000;stroke-linecap:round;"/>
    <path d="
M191.823 49.4
L187.823 47.4
L191.823 45.4" style="fill:none;stroke:#000000;stroke-linecap:round;"/>
    <path d="
M398.575 45.4
L402.575 47.4
L398.575 49.4" style="fill:none;stroke:#000000;stroke-linecap:round;"/>
   </g>
   <g id="text_6">
    <!-- Comprimento -->
    <defs>
     <path d="
M64.4062 67.2812
L64.4062 56.8906
Q59.4219 61.5312 53.7812 63.8125
Q48.1406 66.1094 41.7969 66.1094
Q29.2969 66.1094 22.6562 58.4688
Q16.0156 50.8281 16.0156 36.375
Q16.0156 21.9688 22.6562 14.3281
Q29.2969 6.6875 41.7969 6.6875
Q48.1406 6.6875 53.7812 8.98438
Q59.4219 11.2812 64.4062 15.9219
L64.4062 5.60938
Q59.2344 2.09375 53.4375 0.328125
Q47.6562 -1.42188 41.2188 -1.42188
Q24.6562 -1.42188 15.125 8.70312
Q5.60938 18.8438 5.60938 36.375
Q5.60938 53.9531 15.125 64.0781
Q24.6562 74.2188 41.2188 74.2188
Q47.75 74.2188 53.5312 72.4844
Q59.3281 70.75 64.4062 67.2812" id="BitstreamVeraSans-Roman-43"/>
    </defs>
    <g style="fill:#0000ff;" transform="translate(261.57890625 43.4603125)scale(0.1 -0.1)">
     <use xlink:href="#BitstreamVeraSans-Roman-43"/>
     <use x="69.82421875" xlink:href="#BitstreamVeraSans-Roman-6f"/>
     <use x="131.005859375" xlink:href="#BitstreamVeraSans-Roman-6d"/>
     <use x="228.41796875" xlink:href="#BitstreamVeraSans-Roman-70"/>
     <use x="291.89453125" xlink:href="#BitstreamVeraSans-Roman-72"/>
     <use x="333.0078125" xlink:href="#BitstreamVeraSans-Roman-69"/>
     <use x="360.791015625" xlink:href="#BitstreamVeraSans-Roman-6d"/>
     <use x="458.203125" xlink:href="#BitstreamVeraSans-Roman-65"/>
     <use x="519.7265625" xlink:href="#BitstreamVeraSans-Roman-6e"/>
     <use x="583.10546875" xlink:href="#BitstreamVeraSans-Roman-74"/>
     <use x="622.314453125" xlink:href="#BitstreamVeraSans-Roman-6f"/>
    </g>
   </g>
   <g id="text_7">
    <!-- Período -->
    <defs>
     <path d="
M19.6719 64.7969
L19.6719 37.4062
L32.0781 37.4062
Q38.9688 37.4062 42.7188 40.9688
Q46.4844 44.5312 46.4844 51.125
Q46.4844 57.6719 42.7188 61.2344
Q38.9688 64.7969 32.0781 64.7969
z

M9.8125 72.9062
L32.0781 72.9062
Q44.3438 72.9062 50.6094 67.3594
Q56.8906 61.8125 56.8906 51.125
Q56.8906 40.3281 50.6094 34.8125
Q44.3438 29.2969 32.0781 29.2969
L19.6719 29.2969
L19.6719 0
L9.8125 0
z
" id="BitstreamVeraSans-Roman-50"/>
     <path d="
M9.42188 54.6875
L18.4062 54.6875
L18.4062 0
L9.42188 0
z

M20.6562 79.9844
L30.375 79.9844
L14.4688 61.625
L6.98438 61.625
z
" id="BitstreamVeraSans-Roman-ed"/>
    </defs>
    <g style="fill:#ff0000;" transform="translate(277.31640625 56.8584375)scale(0.1 -0.1)">
     <use xlink:href="#BitstreamVeraSans-Roman-50"/>
     <use x="56.677734375" xlink:href="#BitstreamVeraSans-Roman-65"/>
     <use x="118.201171875" xlink:href="#BitstreamVeraSans-Roman-72"/>
     <use x="159.314453125" xlink:href="#BitstreamVeraSans-Roman-ed"/>
     <use x="187.09765625" xlink:href="#BitstreamVeraSans-Roman-6f"/>
     <use x="248.279296875" xlink:href="#BitstreamVeraSans-Roman-64"/>
     <use x="311.755859375" xlink:href="#BitstreamVeraSans-Roman-6f"/>
    </g>
   </g>
   <g id="line2d_2">
    <path clip-path="url(#pd17d8af51d)" d="
M138.96 66
L451.44 66" style="fill:none;stroke:#808080;stroke-dasharray:6.000000,6.000000;stroke-dashoffset:0.0;"/>
   </g>
   <g id="line2d_3">
    <path clip-path="url(#pd17d8af51d)" d="
M138.96 214.8
L451.44 214.8" style="fill:none;stroke:#808080;stroke-dasharray:6.000000,6.000000;stroke-dashoffset:0.0;"/>
   </g>
   <g id="line2d_4">
    <path clip-path="url(#pd17d8af51d)" d="
M184.705 285.48
L184.705 -1" style="fill:none;stroke:#808080;stroke-dasharray:6.000000,6.000000;stroke-dashoffset:0.0;"/>
   </g>
   <g id="line2d_5">
    <path clip-path="url(#pd17d8af51d)" d="
M405.695 285.48
L405.695 -1" style="fill:none;stroke:#808080;stroke-dasharray:6.000000,6.000000;stroke-dashoffset:0.0;"/>
   </g>
  </g>
 </g>
 <defs>
  <clipPath id="pd17d8af51d">
   <rect height="223.2" width="446.4" x="72.0" y="28.8"/>
  </clipPath>
 </defs>
</svg>
